<?xml version="1.0" standalone="no"?>
<!DOCTYPE svg PUBLIC "-//W3C//DTD SVG 20010904//EN"
 "http://www.w3.org/TR/2001/REC-SVG-20010904/DTD/svg10.dtd">
<svg version="1.0" xmlns="http://www.w3.org/2000/svg"
 width="1920.000000pt" height="1080.000000pt" viewBox="0 0 1920.000000 1080.000000"
 preserveAspectRatio="xMidYMid meet">

<g transform="translate(0.000000,1080.000000) scale(0.100000,-0.100000)"
fill="#000000" stroke="none">
<path d="M594 10595 c0 -71 1 -99 3 -62 2 37 2 96 0 130 -2 34 -3 4 -3 -68z"/>
<path d="M3584 10595 c0 -71 1 -99 3 -62 2 37 2 96 0 130 -2 34 -3 4 -3 -68z"/>
<path d="M3736 10684 c-3 -9 -6 -46 -6 -84 0 -99 1 -100 80 -100 78 0 80 2 80
84 0 46 -4 56 -33 84 -26 25 -41 32 -74 32 -28 0 -43 -5 -47 -16z m76 -26 c2
-28 8 -34 31 -36 27 -3 28 -5 25 -55 l-3 -52 -55 0 -55 0 -3 74 c-4 89 0 101
32 101 21 0 25 -5 28 -32z m33 2 c18 -19 17 -20 -3 -20 -15 0 -22 6 -22 20 0
11 2 20 3 20 2 0 12 -9 22 -20z"/>
<path d="M6732 10688 c-7 -7 -12 -42 -12 -88 0 -46 5 -81 12 -88 7 -7 37 -12
68 -12 31 0 61 5 68 12 7 7 12 36 12 65 0 44 -5 58 -31 88 -25 28 -38 35 -68
35 -20 0 -42 -5 -49 -12z m68 -28 c0 -26 5 -31 30 -36 29 -6 30 -9 30 -60 l0
-54 -60 0 -60 0 0 90 0 90 30 0 c27 0 30 -3 30 -30z m35 0 c18 -19 17 -20 -3
-20 -15 0 -22 6 -22 20 0 11 2 20 3 20 2 0 12 -9 22 -20z"/>
<path d="M222 10678 c-16 -16 -16 -140 0 -156 7 -7 40 -12 78 -12 38 0 71 5
78 12 7 7 12 40 12 78 0 38 -5 71 -12 78 -7 7 -40 12 -78 12 -38 0 -71 -5 -78
-12z m28 -93 c0 -30 -4 -55 -10 -55 -5 0 -10 25 -10 55 0 30 5 55 10 55 6 0
10 -25 10 -55z m120 0 l0 -55 -55 0 -55 0 0 48 c0 27 3 52 7 55 3 4 28 7 55 7
l48 0 0 -55z"/>
<path d="M9770 10651 c0 -40 0 -40 -42 -44 l-43 -4 43 -1 42 -2 0 -40 c0 -22
5 -40 10 -40 6 0 10 18 10 39 0 40 0 40 43 44 l42 4 -42 1 -43 2 0 40 c0 22
-4 40 -10 40 -5 0 -10 -18 -10 -39z"/>
<path d="M18340 10661 c44 -6 45 -7 51 -51 l7 -45 -2 50 -1 50 -50 1 -50 2 45
-7z"/>
<path d="M18850 10665 c0 -5 11 -21 25 -35 l25 -26 -25 -24 c-14 -13 -25 -28
-25 -34 0 -5 14 3 30 19 l30 29 30 -29 c16 -16 32 -26 35 -24 3 3 -9 18 -25
34 l-30 29 32 33 c38 39 26 45 -14 6 l-28 -27 -30 29 c-16 16 -30 25 -30 20z"/>
<path d="M1072 10653 c12 -27 64 -103 70 -103 5 0 7 26 6 58 l-1 57 -6 -50 -6
-50 -28 48 c-15 26 -30 47 -33 47 -3 0 -4 -3 -2 -7z"/>
<path d="M1531 10609 c-1 -54 0 -56 25 -55 51 2 59 71 8 71 -10 0 -22 9 -26
20 -3 12 -6 -4 -7 -36z m54 -19 c0 -16 -6 -26 -18 -28 -19 -4 -32 20 -23 44 9
25 41 13 41 -16z"/>
<path d="M4051 10603 c1 -32 4 -46 6 -30 5 34 30 35 45 2 6 -14 15 -25 20 -25
5 0 1 11 -8 25 -13 20 -14 28 -4 40 17 20 -3 45 -36 45 -23 0 -24 -3 -23 -57z
m49 27 c0 -13 -7 -20 -20 -20 -13 0 -20 7 -20 20 0 13 7 20 20 20 13 0 20 -7
20 -20z"/>
<path d="M4453 10653 c13 -3 17 -15 17 -54 0 -27 5 -49 10 -49 6 0 10 22 10
49 0 39 4 51 18 54 9 3 -3 5 -28 5 -25 0 -37 -2 -27 -5z"/>
<path d="M4633 10605 c0 -33 2 -45 4 -27 2 18 2 45 0 60 -2 15 -4 0 -4 -33z"/>
<path d="M4940 10646 c0 -8 -10 -16 -22 -18 -19 -2 -23 -9 -23 -38 0 -32 3
-35 33 -38 l32 -3 0 55 c0 31 -4 56 -10 56 -5 0 -10 -6 -10 -14z m0 -56 c0
-32 -26 -43 -36 -15 -9 21 3 45 21 45 10 0 15 -10 15 -30z"/>
<path d="M5027 10653 c-15 -14 -6 -40 19 -52 30 -13 27 -36 -5 -35 -11 0 -21
-3 -21 -8 0 -5 12 -8 28 -6 38 4 42 40 7 56 -31 14 -28 37 4 36 11 0 21 3 21
8 0 10 -44 11 -53 1z"/>
<path d="M5190 10642 c0 -13 -7 -18 -21 -18 -12 1 -26 -7 -33 -16 -15 -25 4
-53 38 -54 25 -1 26 1 26 52 0 30 -2 54 -5 54 -3 0 -5 -8 -5 -18z m-2 -50 c2
-14 -3 -25 -13 -29 -21 -7 -34 12 -27 39 6 26 36 19 40 -10z"/>
<path d="M5311 10609 c-1 -55 0 -56 27 -55 24 1 27 5 27 36 0 28 -4 35 -20 35
-11 0 -23 9 -27 20 -3 12 -6 -4 -7 -36z m47 -16 c-3 -30 -25 -42 -34 -19 -9
22 2 46 21 46 12 0 15 -8 13 -27z"/>
<path d="M7040 10605 c0 -52 2 -55 24 -55 32 0 56 25 56 59 0 35 -17 51 -52
51 -27 0 -28 -1 -28 -55z m54 39 c19 -7 21 -55 4 -72 -7 -7 -20 -12 -30 -12
-15 0 -18 8 -18 45 0 46 8 53 44 39z"/>
<path d="M843 10643 c15 -2 37 -2 50 0 12 2 0 4 -28 4 -27 0 -38 -2 -22 -4z"/>
<path d="M1408 10639 c-2 -6 -2 -28 0 -50 3 -28 9 -39 21 -38 10 0 11 2 4 6
-15 5 -18 60 -4 65 5 2 3 8 -4 15 -9 8 -15 9 -17 2z"/>
<path d="M4362 10633 c-8 -8 -9 -13 -2 -13 5 0 10 -16 10 -35 0 -27 4 -35 18
-34 10 0 12 3 5 6 -15 5 -18 60 -4 65 5 2 4 8 -3 14 -8 8 -15 7 -24 -3z"/>
<path d="M7678 10637 c-7 -22 7 -80 20 -83 7 -1 8 0 2 3 -12 6 -13 60 -1 65 5
2 3 8 -4 15 -10 9 -14 9 -17 0z"/>
<path d="M18274 10637 c-3 -8 -4 -32 -2 -53 l3 -39 50 0 50 0 0 50 0 50 -48 3
c-34 2 -49 -1 -53 -11z m96 -42 l0 -45 -45 0 -45 0 0 45 0 45 45 0 45 0 0 -45z"/>
<path d="M3348 10617 l22 -24 -20 -18 c-11 -10 -20 -23 -20 -28 0 -6 11 0 25
13 l25 23 25 -23 c14 -13 25 -19 25 -13 0 5 -9 18 -20 28 l-20 18 22 24 c25
26 14 32 -14 6 -17 -15 -19 -15 -36 0 -28 26 -39 20 -14 -6z"/>
<path d="M6338 10617 l22 -24 -20 -18 c-11 -10 -20 -23 -20 -28 0 -6 11 0 25
13 l25 23 25 -23 c14 -13 25 -19 25 -13 0 5 -9 18 -20 28 l-20 18 22 24 c25
26 14 32 -14 6 -17 -15 -19 -15 -36 0 -28 26 -39 20 -14 -6z"/>
<path d="M9323 10624 c21 -25 22 -38 2 -54 -8 -7 -15 -17 -15 -23 0 -6 11 0
25 13 25 23 25 23 47 4 l23 -19 -19 23 c-19 22 -19 22 4 47 13 14 19 25 13 25
-6 0 -16 -7 -23 -15 -16 -20 -29 -19 -54 3 -21 17 -21 17 -3 -4z"/>
<path d="M1182 10618 c-26 -26 -6 -69 33 -67 17 1 17 2 -4 8 -38 10 -38 31 1
32 l33 2 -35 7 c-27 5 -31 8 -18 14 9 4 22 4 29 0 8 -4 9 -3 5 4 -9 15 -29 15
-44 0z"/>
<path d="M1287 10609 c-4 -13 -4 -25 -2 -28 3 -2 5 2 5 10 0 11 2 11 10 -1 9
-13 10 -13 10 0 0 8 -4 21 -9 28 -6 10 -10 8 -14 -9z"/>
<path d="M1460 10626 c0 -2 9 -6 20 -9 11 -3 20 -1 20 4 0 5 -9 9 -20 9 -11 0
-20 -2 -20 -4z"/>
<path d="M4142 10618 c-27 -27 -2 -74 35 -65 15 4 14 5 -3 6 -12 0 -24 8 -28
16 -4 11 2 15 24 15 17 0 30 4 30 8 0 12 -22 32 -35 32 -6 0 -16 -5 -23 -12z
m38 -8 c0 -5 -9 -10 -21 -10 -11 0 -17 5 -14 10 3 6 13 10 21 10 8 0 14 -4 14
-10z"/>
<path d="M4240 10619 l25 -11 -28 -10 c-37 -13 -33 -43 6 -44 26 -1 28 1 25
35 -3 30 -7 36 -28 38 l-25 3 25 -11z m20 -38 c0 -14 -18 -23 -30 -16 -6 4 -8
11 -5 16 8 12 35 12 35 0z"/>
<path d="M4294 10616 c-12 -31 0 -61 26 -63 25 -3 25 -3 3 7 -13 5 -23 18 -23
30 0 12 9 24 23 30 l22 9 -23 0 c-12 1 -25 -5 -28 -13z"/>
<path d="M4533 10623 c23 -6 22 -19 -4 -26 -31 -8 -21 -41 14 -45 23 -3 27 0
27 22 0 39 -10 56 -34 55 -16 -1 -17 -2 -3 -6z m17 -48 c0 -8 -7 -15 -15 -15
-16 0 -20 12 -8 23 11 12 23 8 23 -8z"/>
<path d="M4593 10590 c0 -25 2 -35 4 -22 2 12 2 32 0 45 -2 12 -4 2 -4 -23z"/>
<path d="M4663 10590 c6 -22 15 -40 20 -40 5 0 6 8 2 18 -4 9 -10 27 -12 40
-3 12 -9 22 -13 22 -4 0 -2 -18 3 -40z"/>
<path d="M4696 10614 c-9 -24 -7 -41 3 -25 8 12 11 9 16 -12 10 -38 21 -34 33
13 5 23 6 40 1 40 -5 0 -9 -9 -9 -19 0 -11 -4 -23 -10 -26 -5 -3 -10 3 -10 14
0 25 -16 36 -24 15z"/>
<path d="M4773 10590 c0 -25 2 -35 4 -22 2 12 2 32 0 45 -2 12 -4 2 -4 -23z"/>
<path d="M4811 10586 l2 -41 6 35 c4 22 12 35 21 35 9 0 18 -13 22 -35 l6 -35
-1 40 c-2 36 -5 40 -29 41 -26 1 -28 -1 -27 -40z"/>
<path d="M5103 10590 c0 -25 2 -35 4 -22 2 12 2 32 0 45 -2 12 -4 2 -4 -23z"/>
<path d="M5232 10618 c-27 -27 -2 -74 35 -65 15 4 14 5 -3 6 -12 0 -24 8 -28
16 -4 11 2 15 24 15 17 0 30 4 30 8 0 12 -22 32 -35 32 -6 0 -16 -5 -23 -12z
m38 -8 c0 -5 -9 -10 -21 -10 -11 0 -17 5 -14 10 3 6 13 10 21 10 8 0 14 -4 14
-10z"/>
<path d="M5413 10623 c23 -6 22 -19 -4 -26 -31 -8 -21 -41 14 -45 23 -3 27 0
27 22 0 39 -10 56 -34 55 -16 -1 -17 -2 -3 -6z m17 -48 c0 -8 -7 -15 -15 -15
-16 0 -20 12 -8 23 11 12 23 8 23 -8z"/>
<path d="M5471 10585 c2 -33 3 -35 6 -10 2 17 11 35 20 42 13 10 13 12 -6 10
-18 -1 -21 -7 -20 -42z"/>
<path d="M7150 10615 c-26 -31 13 -82 44 -56 19 16 21 42 4 59 -16 16 -33 15
-48 -3z m45 -25 c0 -16 -6 -26 -18 -28 -19 -4 -32 20 -23 44 9 25 41 13 41
-16z"/>
<path d="M7240 10616 c-20 -25 -8 -61 20 -63 25 -3 25 -3 3 7 -13 5 -23 18
-23 30 0 12 9 24 23 30 15 6 17 9 6 9 -9 1 -22 -6 -29 -13z"/>
<path d="M7303 10595 c2 -36 5 -40 30 -41 25 -1 27 1 26 40 l-2 41 -6 -35 c-4
-22 -12 -35 -21 -35 -9 0 -18 13 -22 35 l-6 35 1 -40z"/>
<path d="M7393 10590 c0 -25 2 -35 4 -22 2 12 2 32 0 45 -2 12 -4 2 -4 -23z"/>
<path d="M7418 10623 c6 -3 13 -21 13 -41 l2 -37 6 35 c9 50 38 53 44 6 l4
-36 -1 37 c-1 37 -2 38 -41 39 -22 1 -34 -1 -27 -3z"/>
<path d="M7522 10618 c-26 -26 -6 -69 33 -67 17 1 17 2 -4 8 -38 10 -38 31 1
32 l33 2 -35 7 c-27 5 -31 8 -18 14 9 4 22 4 29 0 8 -4 9 -3 5 4 -9 15 -29 15
-44 0z"/>
<path d="M7591 10590 l1 -45 8 35 c5 20 5 39 -1 45 -5 5 -9 -8 -8 -35z"/>
<path d="M7627 10623 c6 -4 13 -24 16 -43 4 -34 4 -33 3 4 -1 26 -6 41 -16 43
-10 3 -11 2 -3 -4z"/>
<path d="M1250 10613 c0 -18 20 -66 25 -61 3 3 -1 20 -9 39 -9 19 -15 29 -16
22z"/>
<path d="M1331 10604 c0 -11 3 -14 6 -6 3 7 2 16 -1 19 -3 4 -6 -2 -5 -13z"/>
<path d="M17727 10603 c18 -2 50 -2 70 0 21 2 7 4 -32 4 -38 0 -55 -2 -38 -4z"/>
<path d="M1461 10591 c-8 -5 -11 -16 -8 -25 7 -17 32 -22 41 -7 4 5 -3 7 -14
4 -28 -7 -26 15 3 27 12 5 15 9 7 9 -8 0 -21 -3 -29 -8z"/>
<path d="M1317 10573 c-4 -3 -7 -11 -7 -17 0 -6 5 -5 12 2 6 6 9 14 7 17 -3 3
-9 2 -12 -2z"/>
<path d="M1385 10237 c-17 -14 -28 -36 -32 -63 -5 -36 -1 -46 25 -75 25 -28
37 -34 72 -34 35 0 47 6 71 33 16 18 29 42 28 55 -1 21 -1 20 -12 -5 -33 -72
-101 -92 -147 -43 -71 75 26 187 110 128 l24 -17 -24 -7 c-23 -6 -22 -7 8 -8
29 -1 32 2 32 29 0 17 -4 30 -10 30 -5 0 -10 -5 -10 -10 0 -7 -6 -7 -19 0 -34
17 -88 12 -116 -13z"/>
<path d="M2063 10253 c9 -2 23 -2 30 0 6 3 -1 5 -18 5 -16 0 -22 -2 -12 -5z"/>
<path d="M17128 10230 c-12 -21 -25 -30 -42 -30 -35 0 -42 -18 -16 -45 16 -17
21 -32 18 -50 -3 -14 -1 -28 4 -31 12 -8 58 16 58 29 0 5 -12 2 -26 -8 l-26
-17 3 30 c2 19 -3 38 -14 50 -17 19 -17 20 13 30 16 6 33 18 36 27 8 21 21 19
29 -5 5 -16 14 -20 48 -18 l42 1 -37 4 c-29 3 -38 10 -48 34 -15 36 -21 36
-42 -1z"/>
<path d="M17642 10249 c-18 -6 -35 -16 -38 -24 -8 -19 19 -108 33 -112 9 -3 9
3 -1 24 -8 15 -17 40 -20 56 -6 23 -3 29 21 38 61 23 80 22 87 -3 5 -14 9 -18
13 -10 7 18 -16 42 -41 41 -11 0 -36 -5 -54 -10z"/>
<path d="M2373 10170 c0 -41 2 -58 4 -37 2 20 2 54 0 75 -2 20 -4 3 -4 -38z"/>
<path d="M2683 10170 c0 -41 2 -58 4 -37 2 20 2 54 0 75 -2 20 -4 3 -4 -38z"/>
<path d="M2733 10170 c0 -54 2 -64 6 -35 7 46 37 62 45 23 3 -13 7 -32 9 -43
3 -11 5 -4 6 16 1 39 -19 65 -43 56 -11 -4 -16 3 -19 26 -2 18 -4 -2 -4 -43z"/>
<path d="M4703 10170 c0 -41 2 -58 4 -37 2 20 2 54 0 75 -2 20 -4 3 -4 -38z"/>
<path d="M3100 10226 c0 -2 11 -6 25 -8 13 -3 22 -1 19 3 -5 9 -44 13 -44 5z"/>
<path d="M3202 10218 c-7 -7 -12 -16 -12 -22 0 -5 6 -1 14 9 8 11 19 16 30 12
10 -4 15 -3 11 3 -8 14 -28 13 -43 -2z"/>
<path d="M3296 10221 c-4 -5 3 -7 14 -4 23 6 26 13 6 13 -8 0 -17 -4 -20 -9z"/>
<path d="M16135 10210 c10 -11 20 -20 23 -20 3 0 -3 9 -13 20 -10 11 -20 20
-23 20 -3 0 3 -9 13 -20z"/>
<path d="M3011 10208 c-1 -9 -7 -19 -13 -21 -10 -4 -10 -6 0 -6 7 -1 12 -16
12 -41 0 -32 4 -40 18 -39 10 0 12 3 5 6 -7 2 -13 20 -13 39 0 20 5 34 13 34
8 0 9 3 1 8 -6 4 -14 14 -17 22 -4 12 -6 12 -6 -2z"/>
<path d="M3400 10210 c-13 -8 -12 -10 3 -10 9 0 17 5 17 10 0 12 -1 12 -20 0z"/>
<path d="M4089 10205 c-3 -11 -2 -36 2 -55 l6 -35 2 33 c0 18 6 32 14 32 8 0
9 3 1 8 -6 4 -13 14 -16 22 -3 11 -6 9 -9 -5z"/>
<path d="M4489 10205 c-3 -11 -2 -36 2 -55 l6 -35 2 33 c0 18 6 32 14 32 8 0
9 3 1 8 -6 4 -13 14 -16 22 -3 11 -6 9 -9 -5z"/>
<path d="M1983 10195 c-3 -9 -3 -18 -1 -21 3 -3 8 4 11 16 6 23 -1 27 -10 5z"/>
<path d="M2157 10189 c4 -13 8 -18 11 -10 2 7 -1 18 -6 23 -8 8 -9 4 -5 -13z"/>
<path d="M16505 10200 c-16 -7 -17 -9 -3 -9 9 -1 20 4 23 9 7 11 7 11 -20 0z"/>
<path d="M16578 10198 c5 -5 16 -8 23 -6 8 3 3 7 -10 11 -17 4 -21 3 -13 -5z"/>
<path d="M3253 10165 c0 -22 2 -30 4 -17 2 12 2 30 0 40 -3 9 -5 -1 -4 -23z"/>
<path d="M17666 10185 c-10 -28 -7 -100 6 -113 14 -14 96 -16 116 -3 9 5 12
26 10 67 l-3 59 -61 3 c-49 2 -63 0 -68 -13z m119 -50 l0 -50 -52 -3 -53 -3 0
49 c0 27 3 52 7 56 4 4 28 6 53 4 l45 -3 0 -50z"/>
<path d="M17720 10155 c0 -8 -7 -15 -15 -15 -8 0 -15 -4 -15 -10 0 -5 7 -10
15 -10 8 0 15 -7 15 -15 0 -8 5 -15 10 -15 6 0 10 7 10 15 0 8 7 15 15 15 8 0
15 5 15 10 0 6 -7 10 -15 10 -8 0 -15 7 -15 15 0 8 -4 15 -10 15 -5 0 -10 -7
-10 -15z"/>
<path d="M2423 10182 c-27 -17 -19 -70 12 -78 31 -8 55 10 55 40 0 38 -36 58
-67 38z m52 -21 c9 -29 -5 -52 -29 -49 -37 5 -34 68 3 68 11 0 22 -8 26 -19z"/>
<path d="M2522 10178 c-28 -28 -7 -79 33 -77 17 1 16 2 -5 8 -19 5 -25 13 -25
36 0 23 6 31 25 36 21 6 22 7 5 8 -12 1 -26 -4 -33 -11z"/>
<path d="M2596 10182 c-3 -5 6 -7 19 -4 33 6 32 -14 -1 -22 -37 -10 -30 -51 9
-52 27 -1 28 1 25 40 -2 33 -7 42 -25 44 -11 2 -24 -1 -27 -6z m44 -47 c0 -16
-27 -32 -37 -22 -3 4 -3 13 0 22 8 20 37 20 37 0z"/>
<path d="M2830 10176 c-28 -35 11 -93 48 -70 35 22 22 84 -18 84 -10 0 -23 -7
-30 -14z m55 -31 c0 -25 -4 -30 -25 -30 -16 0 -26 6 -28 18 -6 30 6 49 30 45
18 -2 23 -9 23 -33z"/>
<path d="M2927 10183 c-14 -13 -6 -30 20 -42 27 -13 23 -25 -12 -34 -15 -3
-13 -5 8 -6 27 -1 52 29 30 36 -5 2 -19 10 -29 18 -18 13 -18 14 6 24 22 9 23
10 4 10 -11 1 -24 -2 -27 -6z"/>
<path d="M3282 10160 c0 -19 2 -27 5 -17 2 9 2 25 0 35 -3 9 -5 1 -5 -18z"/>
<path d="M3546 10181 c-3 -4 6 -6 19 -3 14 2 25 6 25 8 0 8 -39 4 -44 -5z"/>
<path d="M3708 10183 c7 -3 16 -2 19 1 4 3 -2 6 -13 5 -11 0 -14 -3 -6 -6z"/>
<path d="M3840 10173 c-12 -15 -12 -16 0 -5 17 15 46 16 53 2 3 -6 4 -5 3 2
-4 20 -41 21 -56 1z"/>
<path d="M3934 10148 c1 -33 5 -43 19 -44 11 -1 12 0 3 3 -9 2 -17 21 -19 44
l-4 39 1 -42z"/>
<path d="M3988 10149 c-2 -22 0 -43 4 -45 4 -3 8 15 8 40 0 57 -7 60 -12 5z"/>
<path d="M4033 10183 c9 -2 23 -2 30 0 6 3 -1 5 -18 5 -16 0 -22 -2 -12 -5z"/>
<path d="M4180 10183 c8 -3 22 -11 30 -17 13 -10 13 -9 1 7 -7 9 -21 17 -30
16 -13 0 -14 -1 -1 -6z"/>
<path d="M4250 10145 c0 -27 2 -46 4 -44 8 8 10 78 3 85 -4 4 -7 -14 -7 -41z"/>
<path d="M4288 10183 c7 -3 16 -2 19 1 4 3 -2 6 -13 5 -11 0 -14 -3 -6 -6z"/>
<path d="M4403 10183 c-7 -2 -13 -9 -13 -15 0 -6 6 -6 15 2 8 7 22 10 30 6 9
-3 13 -2 10 4 -7 11 -22 12 -42 3z"/>
<path d="M4578 10183 c7 -3 16 -2 19 1 4 3 -2 6 -13 5 -11 0 -14 -3 -6 -6z"/>
<path d="M4612 10178 c-7 -7 -11 -28 -11 -47 l2 -36 6 40 c5 33 10 40 28 39
12 0 20 3 17 8 -7 12 -28 10 -42 -4z"/>
<path d="M2072 10150 c0 -19 2 -27 5 -17 2 9 2 25 0 35 -3 9 -5 1 -5 -18z"/>
<path d="M18776 10173 c-11 -11 -6 -23 9 -23 8 0 15 4 15 9 0 13 -16 22 -24
14z"/>
<path d="M18840 10165 c0 -8 5 -15 10 -15 6 0 10 7 10 15 0 8 -4 15 -10 15 -5
0 -10 -7 -10 -15z"/>
<path d="M18905 10170 c-3 -5 -1 -10 4 -10 6 0 11 5 11 10 0 6 -2 10 -4 10 -3
0 -8 -4 -11 -10z"/>
<path d="M4313 10135 c0 -22 2 -30 4 -17 2 12 2 30 0 40 -3 9 -5 -1 -4 -23z"/>
<path d="M1981 10144 c0 -11 3 -14 6 -6 3 7 2 16 -1 19 -3 4 -6 -2 -5 -13z"/>
<path d="M2161 10144 c0 -11 3 -14 6 -6 3 7 2 16 -1 19 -3 4 -6 -2 -5 -13z"/>
<path d="M3144 10138 c1 -15 -7 -24 -24 -29 -25 -8 -25 -8 -1 -6 29 2 51 31
35 47 -8 8 -10 4 -10 -12z"/>
<path d="M3545 10150 c3 -6 13 -10 21 -10 23 0 16 -28 -8 -33 -20 -5 -20 -5 2
-4 33 2 34 36 2 48 -15 6 -21 5 -17 -1z"/>
<path d="M3671 10144 c0 -11 3 -14 6 -6 3 7 2 16 -1 19 -3 4 -6 -2 -5 -13z"/>
<path d="M4141 10144 c0 -11 3 -14 6 -6 3 7 2 16 -1 19 -3 4 -6 -2 -5 -13z"/>
<path d="M4452 10130 c0 -19 2 -27 5 -17 2 9 2 25 0 35 -3 9 -5 1 -5 -18z"/>
<path d="M16036 10145 c-2 -6 15 -10 39 -10 24 0 41 4 39 10 -2 6 -20 10 -39
10 -19 0 -37 -4 -39 -10z"/>
<path d="M16578 10148 c-28 -23 -29 -48 -3 -73 25 -26 50 -25 73 3 17 22 15
39 -8 62 -23 23 -40 25 -62 8z m48 -23 c13 -13 13 -17 -5 -37 -18 -18 -21 -19
-21 -5 0 9 -8 17 -17 17 -15 0 -14 2 3 19 23 24 22 24 40 6z"/>
<path d="M17198 10153 c12 -2 30 -2 40 0 9 3 -1 5 -23 4 -22 0 -30 -2 -17 -4z"/>
<path d="M18910 10140 c-41 -41 -13 -110 44 -110 41 0 66 26 66 68 0 56 -70
82 -110 42z m70 -32 c0 -5 -4 -6 -10 -3 -6 4 -11 -8 -12 -27 l-1 -33 -4 33
c-2 18 -9 30 -14 27 -13 -9 -11 9 3 23 12 12 38 -1 38 -20z"/>
<path d="M3192 10131 c7 -25 36 -37 50 -23 11 11 9 12 -6 6 -13 -5 -24 -1 -34
12 -8 10 -12 13 -10 5z"/>
<path d="M3870 10114 c-17 -9 -20 -14 -9 -14 9 0 22 7 29 15 15 18 13 18 -20
-1z"/>
<path d="M4204 10119 c-3 -6 -17 -9 -30 -6 -13 2 -21 0 -18 -4 8 -14 40 -10
54 6 7 8 10 15 7 15 -3 0 -9 -5 -13 -11z"/>
<path d="M17180 10120 c0 -5 16 -10 36 -10 21 0 33 4 29 10 -3 6 -19 10 -36
10 -16 0 -29 -4 -29 -10z"/>
<path d="M2009 10098 c14 -16 32 -28 40 -27 14 0 14 1 1 6 -8 3 -26 15 -40 27
l-25 21 24 -27z"/>
<path d="M2139 10104 c-7 -9 -22 -20 -34 -24 -14 -6 -15 -9 -4 -9 8 -1 26 10
39 24 13 14 21 25 18 25 -3 0 -12 -7 -19 -16z"/>
<path d="M3298 10108 c5 -5 16 -8 23 -6 8 3 3 7 -10 11 -17 4 -21 3 -13 -5z"/>
<path d="M3688 10108 c6 -6 18 -8 28 -6 14 3 12 5 -9 10 -19 3 -25 2 -19 -4z"/>
<path d="M4040 10110 c0 -6 7 -10 15 -10 8 0 15 2 15 4 0 2 -7 6 -15 10 -8 3
-15 1 -15 -4z"/>
<path d="M7649 9487 c-145 -41 -233 -154 -233 -303 0 -60 5 -81 32 -137 37
-75 73 -109 152 -146 73 -34 173 -35 244 -3 57 26 116 68 116 83 0 6 -15 -2
-32 -17 -97 -81 -227 -98 -336 -43 -106 52 -162 144 -162 264 0 120 56 212
162 264 51 26 73 31 133 31 60 0 82 -5 133 -31 70 -35 105 -71 140 -147 20
-45 24 -65 20 -132 -2 -52 0 -76 7 -69 5 5 9 42 9 82 0 125 -60 224 -167 277
-73 35 -153 45 -218 27z"/>
<path d="M7711 9442 c0 -7 -5 -11 -10 -8 -4 3 -16 -3 -26 -14 -22 -25 -32 -25
-38 -2 -4 16 -5 16 -6 0 -1 -13 -10 -18 -32 -18 l-30 0 24 -22 c15 -16 22 -32
21 -52 -4 -39 -14 -46 -15 -10 l-1 29 -7 -30 c-5 -22 -12 -31 -31 -33 -52 -6
-71 -13 -64 -24 5 -8 2 -9 -9 -5 -10 3 -17 2 -17 -3 0 -10 26 -19 75 -24 17
-2 34 -4 38 -5 5 0 5 -6 2 -11 -4 -6 -12 -10 -18 -9 -7 1 -34 1 -60 0 -40 -1
-48 -4 -45 -18 3 -18 8 -19 56 -22 22 -1 31 -29 15 -45 -5 -4 -8 -13 -8 -19 0
-7 -10 -12 -22 -11 -12 0 -20 -3 -17 -8 3 -4 22 -8 42 -9 l37 -1 -34 -12 -34
-12 32 -36 c35 -40 111 -82 124 -69 4 4 9 19 11 32 4 38 30 86 44 82 6 -3 12
-11 12 -19 0 -8 7 -14 15 -14 8 0 15 5 15 11 0 6 5 7 13 2 17 -11 30 -11 44 0
18 13 33 0 33 -28 0 -29 -28 -47 -52 -34 -10 6 -19 6 -22 0 -8 -12 20 -21 61
-19 46 1 105 55 132 119 13 28 20 60 18 70 -3 11 -1 19 4 19 5 0 9 12 9 26 0
23 -3 25 -26 20 -22 -6 -25 -4 -20 9 3 9 6 19 6 21 0 2 5 4 11 4 5 0 7 -6 3
-12 -5 -10 -4 -10 6 -1 11 10 11 17 0 40 l-13 28 -11 -25 c-10 -24 -12 -25
-28 -9 -9 10 -14 20 -10 23 3 3 -3 6 -14 7 -18 0 -18 1 1 9 17 7 17 9 3 9 -25
1 -11 29 15 33 l22 3 -22 23 c-15 14 -36 22 -60 23 -21 1 -30 3 -20 6 9 2 17
8 17 13 0 14 -27 19 -39 7 -8 -8 -11 -7 -11 6 0 10 -8 17 -20 17 -11 0 -20 -4
-20 -10 0 -17 -38 -11 -43 8 -3 9 -5 11 -6 4z m50 -125 c11 -7 19 -20 19 -29
0 -14 -8 -18 -35 -18 -24 0 -35 -5 -35 -15 0 -11 11 -15 40 -15 44 0 47 -5 24
-38 -17 -25 -42 -29 -50 -7 -5 13 -10 13 -40 0 -34 -14 -35 -13 -44 10 -13 33
-3 60 16 44 8 -6 21 -8 30 -5 13 5 14 9 4 21 -7 8 -21 15 -32 15 -15 0 -18 4
-12 23 4 12 12 25 18 30 14 9 72 0 97 -16z m-200 -69 c-23 -6 -37 -6 -44 1 -8
8 2 11 34 10 l44 -1 -34 -10z m272 -43 c-3 -9 -8 -14 -10 -11 -3 3 -2 9 2 15
9 16 15 13 8 -4z m-100 -44 c17 -6 16 -8 -7 -19 -21 -9 -24 -9 -19 3 3 8 0 15
-6 15 -6 0 -11 -4 -11 -10 0 -5 -7 -7 -15 -4 -8 4 -15 10 -15 15 0 11 47 11
73 0z"/>
<path d="M7655 9430 c3 -5 8 -10 11 -10 2 0 4 5 4 10 0 6 -5 10 -11 10 -5 0
-7 -4 -4 -10z"/>
<path d="M7514 9324 c3 -9 6 -18 6 -20 0 -3 5 -2 10 1 16 10 12 35 -6 35 -11
0 -14 -5 -10 -16z"/>
<path d="M7560 9329 c0 -5 5 -7 10 -4 6 3 10 8 10 11 0 2 -4 4 -10 4 -5 0 -10
-5 -10 -11z"/>
<path d="M7976 9054 c-32 -32 -13 -74 34 -74 31 0 50 17 50 45 0 43 -53 61
-84 29z"/>
<path d="M7697 8986 c10 -13 32 -32 48 -42 28 -16 27 -14 -10 24 -44 46 -66
56 -38 18z"/>
<path d="M7790 9000 c-13 -8 -13 -10 2 -10 9 0 20 5 23 10 8 13 -5 13 -25 0z"/>
<path d="M8470 8190 c0 -5 5 -10 10 -10 6 0 10 5 10 10 0 6 -4 10 -10 10 -5 0
-10 -4 -10 -10z"/>
<path d="M8583 8125 c0 -44 2 -61 4 -37 2 23 2 59 0 80 -2 20 -4 1 -4 -43z"/>
<path d="M8790 8125 c0 -43 4 -75 10 -75 6 0 10 32 10 75 0 43 -4 75 -10 75
-6 0 -10 -32 -10 -75z"/>
<path d="M8840 8125 c0 -80 16 -104 21 -32 5 57 0 107 -12 107 -5 0 -9 -34 -9
-75z"/>
<path d="M10110 8125 c0 -43 4 -75 10 -75 6 0 10 32 10 75 0 43 -4 75 -10 75
-6 0 -10 -32 -10 -75z"/>
<path d="M10260 8127 l0 -74 32 -1 c41 -1 58 13 58 47 0 30 -16 51 -39 51 -11
0 -9 -5 7 -16 25 -18 29 -46 7 -64 -24 -20 -47 -4 -45 32 4 63 0 98 -10 98 -6
0 -10 -31 -10 -73z"/>
<path d="M10383 8125 c0 -44 2 -61 4 -37 2 23 2 59 0 80 -2 20 -4 1 -4 -43z"/>
<path d="M8330 8120 c0 -40 4 -70 10 -70 6 0 10 16 10 35 0 33 2 35 35 35 33
0 35 -2 35 -35 0 -19 5 -35 10 -35 6 0 10 30 10 70 0 40 -4 70 -10 70 -5 0
-10 -13 -10 -30 0 -28 -3 -30 -35 -30 -32 0 -35 2 -35 30 0 17 -4 30 -10 30
-6 0 -10 -30 -10 -70z"/>
<path d="M10589 8158 c-5 -61 8 -108 29 -107 11 0 12 3 5 6 -16 6 -17 83 -2
83 6 0 4 7 -5 15 -18 18 -26 19 -27 3z"/>
<path d="M8470 8100 c0 -27 5 -50 10 -50 6 0 10 23 10 50 0 28 -4 50 -10 50
-5 0 -10 -22 -10 -50z"/>
<path d="M8606 8141 c-3 -5 2 -8 12 -7 13 1 18 -8 20 -41 4 -49 22 -59 22 -12
0 52 -35 91 -54 60z"/>
<path d="M8696 8134 c-31 -30 -9 -84 34 -84 10 0 21 4 24 8 2 4 -7 8 -22 7
-17 0 -28 6 -30 18 -3 14 4 17 32 17 29 0 34 3 29 18 -13 34 -42 41 -67 16z
m52 -11 c2 -8 -6 -13 -22 -13 -25 0 -33 10 -19 24 10 10 36 3 41 -11z"/>
<path d="M8892 8138 c9 -7 19 -31 21 -53 3 -32 4 -30 3 10 -1 42 -4 50 -21 53
-18 4 -19 3 -3 -10z"/>
<path d="M9066 8142 c-3 -5 4 -8 16 -8 34 1 32 -22 -2 -29 -25 -5 -31 -11 -28
-28 2 -17 10 -22 36 -22 33 -1 33 -1 30 45 -3 37 -7 46 -25 48 -11 2 -24 -1
-27 -6z m44 -56 c0 -18 -31 -29 -44 -16 -8 8 -7 14 4 20 22 14 40 12 40 -4z"/>
<path d="M9160 8100 c0 -29 2 -51 4 -49 8 8 10 88 3 95 -4 4 -7 -17 -7 -46z"/>
<path d="M9236 8134 c-19 -18 -21 -55 -4 -72 14 -14 54 -16 62 -3 4 5 -3 7
-14 4 -20 -5 -50 12 -50 28 0 5 16 9 35 9 36 0 46 15 23 38 -16 16 -33 15 -52
-4z m52 -11 c2 -9 -7 -13 -28 -13 -28 0 -31 2 -20 15 15 18 41 16 48 -2z"/>
<path d="M9370 8146 c0 -2 9 -25 20 -51 20 -47 16 -77 -12 -88 -10 -4 -10 -6
-1 -6 16 -1 36 31 62 97 25 62 18 71 -8 10 l-17 -42 -17 42 c-14 36 -27 53
-27 38z"/>
<path d="M9492 8138 c-7 -7 -12 -24 -12 -38 0 -30 16 -50 41 -50 23 0 49 27
49 50 0 39 -52 64 -78 38z m56 -10 c28 -28 1 -75 -38 -63 -14 4 -20 15 -20 35
0 37 33 53 58 28z"/>
<path d="M9604 8105 l1 -50 38 -2 37 -1 0 49 c0 60 -18 65 -22 7 -2 -35 -7
-43 -23 -43 -16 0 -21 9 -26 45 l-7 45 2 -50z"/>
<path d="M9776 8141 c-4 -5 2 -7 13 -4 23 6 39 -16 20 -28 -11 -7 -11 -9 -1
-9 8 0 12 -9 10 -22 -2 -11 3 -23 10 -25 15 -6 17 50 2 78 -11 20 -45 26 -54
10z"/>
<path d="M9860 8142 c0 -18 31 -92 39 -92 8 0 43 91 37 97 -2 2 -11 -15 -21
-39 l-17 -43 -14 39 c-15 42 -24 56 -24 38z"/>
<path d="M9976 8142 c-3 -5 4 -8 16 -8 34 1 32 -22 -2 -29 -25 -5 -31 -11 -28
-28 2 -17 10 -22 36 -22 33 -1 33 -1 30 45 -3 37 -7 46 -25 48 -11 2 -24 -1
-27 -6z m44 -56 c0 -18 -31 -29 -44 -16 -8 8 -7 14 4 20 22 14 40 12 40 -4z"/>
<path d="M10073 8100 c0 -30 2 -43 4 -27 2 15 2 39 0 55 -2 15 -4 2 -4 -28z"/>
<path d="M10176 8142 c-3 -5 4 -8 16 -8 34 1 32 -22 -2 -29 -25 -5 -31 -11
-28 -28 2 -17 10 -22 36 -22 33 -1 33 -1 30 45 -3 37 -7 46 -25 48 -11 2 -24
-1 -27 -6z m44 -56 c0 -18 -31 -29 -44 -16 -8 8 -7 14 4 20 22 14 40 12 40 -4z"/>
<path d="M10442 8138 c-7 -7 -12 -24 -12 -38 0 -14 5 -31 12 -38 15 -15 45
-15 54 0 4 7 3 8 -5 4 -16 -10 -51 3 -51 20 0 9 11 14 35 14 38 0 40 2 25 31
-12 21 -40 25 -58 7z m48 -13 c11 -13 8 -15 -19 -15 -31 0 -42 14 -18 23 20 9
24 8 37 -8z"/>
<path d="M10666 8134 c-21 -20 -20 -48 0 -69 23 -22 56 -15 73 17 14 24 14 28
-3 47 -23 25 -49 27 -70 5z m48 0 c35 -13 14 -74 -24 -74 -18 0 -31 39 -20 60
11 21 19 24 44 14z"/>
<path d="M7649 8107 c-145 -41 -233 -154 -233 -303 0 -60 5 -81 32 -137 37
-75 73 -109 152 -146 73 -34 173 -35 244 -3 57 26 116 68 116 83 0 6 -15 -2
-32 -17 -97 -81 -227 -98 -336 -43 -106 52 -162 144 -162 264 0 120 56 212
162 264 51 26 73 31 133 31 60 0 82 -5 133 -31 70 -35 105 -71 140 -147 20
-45 24 -65 20 -132 -2 -52 0 -76 7 -69 5 5 9 42 9 82 0 125 -60 224 -167 277
-73 35 -153 45 -218 27z"/>
<path d="M9764 8085 c-8 -19 3 -35 24 -35 13 0 13 2 -4 15 -16 13 -17 16 -4
25 11 7 11 10 2 10 -7 0 -15 -7 -18 -15z"/>
<path d="M7711 8062 c0 -7 -5 -11 -10 -8 -4 3 -16 -3 -26 -14 -22 -25 -32 -25
-38 -2 -4 16 -5 16 -6 0 -1 -13 -10 -18 -32 -18 l-30 0 24 -22 c15 -16 22 -32
21 -52 -4 -39 -14 -46 -15 -10 l-1 29 -7 -30 c-5 -22 -12 -31 -31 -33 -52 -6
-71 -13 -64 -24 5 -8 2 -9 -9 -5 -10 3 -17 2 -17 -3 0 -10 26 -19 75 -24 17
-2 34 -4 38 -5 5 0 5 -6 2 -11 -4 -6 -12 -10 -18 -9 -7 1 -34 1 -60 0 -40 -1
-48 -4 -45 -18 3 -18 8 -19 56 -22 22 -1 31 -29 15 -45 -5 -4 -8 -13 -8 -19 0
-7 -10 -12 -22 -11 -12 0 -20 -3 -17 -8 3 -4 22 -8 42 -9 l37 -1 -34 -12 -34
-12 32 -36 c35 -40 111 -82 124 -69 4 4 9 19 11 32 4 38 30 86 44 82 6 -3 12
-11 12 -19 0 -8 7 -14 15 -14 8 0 15 5 15 11 0 6 5 7 13 2 17 -11 30 -11 44 0
18 13 33 0 33 -28 0 -29 -28 -47 -52 -34 -10 6 -19 6 -22 0 -8 -12 20 -21 61
-19 46 1 105 55 132 119 13 28 20 60 18 70 -3 11 -1 19 4 19 5 0 9 12 9 26 0
23 -3 25 -26 20 -22 -6 -25 -4 -20 9 3 9 6 19 6 21 0 2 5 4 11 4 5 0 7 -6 3
-12 -5 -10 -4 -10 6 -1 11 10 11 17 0 40 l-13 28 -11 -25 c-10 -24 -12 -25
-28 -9 -9 10 -14 20 -10 23 3 3 -3 6 -14 7 -18 0 -18 1 1 9 17 7 17 9 3 9 -25
1 -11 29 15 33 l22 3 -22 23 c-15 14 -36 22 -60 23 -21 1 -30 3 -20 6 9 2 17
8 17 13 0 14 -27 19 -39 7 -8 -8 -11 -7 -11 6 0 10 -8 17 -20 17 -11 0 -20 -4
-20 -10 0 -17 -38 -11 -43 8 -3 9 -5 11 -6 4z m50 -125 c11 -7 19 -20 19 -29
0 -14 -8 -18 -35 -18 -24 0 -35 -5 -35 -15 0 -11 11 -15 40 -15 44 0 47 -5 24
-38 -17 -25 -42 -29 -50 -7 -5 13 -10 13 -40 0 -34 -14 -35 -13 -44 10 -13 33
-3 60 16 44 8 -6 21 -8 30 -5 13 5 14 9 4 21 -7 8 -21 15 -32 15 -15 0 -18 4
-12 23 4 12 12 25 18 30 14 9 72 0 97 -16z m-200 -69 c-23 -6 -37 -6 -44 1 -8
8 2 11 34 10 l44 -1 -34 -10z m272 -43 c-3 -9 -8 -14 -10 -11 -3 3 -2 9 2 15
9 16 15 13 8 -4z m-100 -44 c17 -6 16 -8 -7 -19 -21 -9 -24 -9 -19 3 3 8 0 15
-6 15 -6 0 -11 -4 -11 -10 0 -5 -7 -7 -15 -4 -8 4 -15 10 -15 15 0 11 47 11
73 0z"/>
<path d="M8950 8050 c0 -11 2 -20 4 -20 2 0 6 9 9 20 3 11 1 20 -4 20 -5 0 -9
-9 -9 -20z"/>
<path d="M7655 8050 c3 -5 8 -10 11 -10 2 0 4 5 4 10 0 6 -5 10 -11 10 -5 0
-7 -4 -4 -10z"/>
<path d="M7514 7944 c3 -9 6 -18 6 -20 0 -3 5 -2 10 1 16 10 12 35 -6 35 -11
0 -14 -5 -10 -16z"/>
<path d="M7560 7949 c0 -5 5 -7 10 -4 6 3 10 8 10 11 0 2 -4 4 -10 4 -5 0 -10
-5 -10 -11z"/>
<path d="M8420 7825 c0 -80 16 -104 21 -32 5 57 0 107 -12 107 -5 0 -9 -34 -9
-75z"/>
<path d="M8705 7880 c-3 -6 1 -7 10 -4 8 4 22 1 30 -6 14 -12 13 -16 -6 -36
-12 -12 -20 -27 -18 -33 2 -6 15 5 28 24 19 29 21 38 11 50 -14 17 -46 20 -55
5z"/>
<path d="M8639 7858 c-5 -61 8 -108 29 -107 11 0 12 3 5 6 -16 6 -17 83 -2 83
6 0 4 7 -5 15 -18 18 -26 19 -27 3z"/>
<path d="M8342 7838 c-7 -7 -12 -24 -12 -38 0 -14 5 -31 12 -38 15 -15 45 -15
54 0 4 7 3 8 -5 4 -20 -13 -51 4 -51 28 0 28 24 50 45 42 9 -3 13 -2 10 4 -8
14 -38 13 -53 -2z"/>
<path d="M8472 7838 c9 -7 19 -31 21 -53 3 -32 4 -30 3 10 -1 42 -4 50 -21 53
-18 4 -19 3 -3 -10z"/>
<path d="M8546 7841 c-4 -5 2 -7 13 -4 23 6 39 -16 20 -28 -11 -7 -11 -9 -1
-9 8 0 12 -9 10 -22 -2 -11 3 -23 10 -25 15 -6 17 50 2 78 -11 20 -45 26 -54
10z"/>
<path d="M8534 7785 c-8 -19 3 -35 24 -35 13 0 13 2 -4 15 -16 13 -17 16 -4
25 11 7 11 10 2 10 -7 0 -15 -7 -18 -15z"/>
<path d="M8720 7760 c0 -5 5 -10 10 -10 6 0 10 5 10 10 0 6 -4 10 -10 10 -5 0
-10 -4 -10 -10z"/>
<path d="M7976 7674 c-32 -32 -13 -74 34 -74 31 0 50 17 50 45 0 43 -53 61
-84 29z"/>
<path d="M7697 7606 c10 -13 32 -32 48 -42 28 -16 27 -14 -10 24 -44 46 -66
56 -38 18z"/>
<path d="M7790 7620 c-13 -8 -13 -10 2 -10 9 0 20 5 23 10 8 13 -5 13 -25 0z"/>
<path d="M8061 7421 c-15 -26 -14 -84 1 -99 19 -19 36 -14 54 14 23 35 9 98
-23 102 -14 2 -26 -4 -32 -17z m49 -17 c12 -31 3 -74 -17 -81 -19 -7 -33 14
-33 49 0 59 32 80 50 32z"/>
<path d="M8178 7426 c-22 -16 -23 -27 -4 -20 12 4 16 -6 19 -48 3 -51 3 -50 5
15 1 37 1 67 0 67 -2 0 -11 -7 -20 -14z"/>
<path d="M8308 7426 c-22 -16 -23 -27 -4 -20 12 4 16 -6 19 -48 3 -51 3 -50 5
15 1 37 1 67 0 67 -2 0 -11 -7 -20 -14z"/>
<path d="M8381 7421 c-15 -26 -14 -84 1 -99 19 -19 36 -14 54 14 23 35 9 98
-23 102 -14 2 -26 -4 -32 -17z m49 -17 c12 -31 3 -74 -17 -81 -19 -7 -33 14
-33 49 0 59 32 80 50 32z"/>
<path d="M8471 7373 c1 -37 4 -56 6 -42 3 20 11 28 34 33 27 5 30 9 27 38 -3
29 -7 33 -35 36 l-33 3 1 -68z m54 27 c0 -18 -6 -26 -22 -28 -20 -3 -23 1 -23
28 0 27 3 31 23 28 16 -2 22 -10 22 -28z"/>
<path d="M8572 7373 l1 -68 6 55 6 55 23 -55 23 -55 24 55 24 55 3 -55 c4 -55
4 -55 6 13 1 37 0 67 -3 67 -3 0 -16 -24 -29 -52 l-24 -53 -23 53 c-13 28 -27
52 -31 52 -4 0 -7 -30 -6 -67z"/>
<path d="M11182 6884 c-111 -30 -190 -112 -219 -229 -15 -60 -15 -70 0 -130
30 -122 110 -202 232 -232 66 -16 127 -11 195 15 35 14 113 72 106 79 -3 4
-16 -3 -29 -14 -53 -50 -107 -68 -202 -68 -101 0 -158 21 -214 79 -57 60 -76
112 -76 206 0 94 19 146 76 206 56 58 113 79 214 79 101 0 158 -21 214 -79 57
-60 76 -112 76 -208 0 -93 9 -107 19 -30 9 61 -15 150 -54 208 -40 56 -104
100 -176 119 -70 18 -93 18 -162 -1z"/>
<path d="M11176 6834 c-94 -29 -176 -143 -176 -244 0 -99 74 -205 168 -240
265 -101 482 221 283 420 -74 74 -169 96 -275 64z m165 -85 c6 -13 9 -47 7
-82 -4 -52 -9 -64 -36 -88 -22 -20 -32 -38 -32 -58 0 -17 -5 -33 -11 -37 -6
-3 -9 -15 -6 -25 4 -14 0 -19 -14 -19 -21 0 -25 10 -10 26 18 18 16 92 -2 112
-22 25 -23 88 0 96 12 5 14 9 5 18 -7 7 -12 20 -12 29 0 48 88 69 111 28z"/>
<path d="M11318 6683 c7 -3 16 -2 19 1 4 3 -2 6 -13 5 -11 0 -14 -3 -6 -6z"/>
<path d="M10212 6668 c-20 -20 -14 -34 23 -63 30 -22 34 -29 24 -42 -8 -9 -21
-12 -37 -8 -15 4 -21 2 -17 -5 8 -14 48 -13 63 2 20 20 14 37 -23 60 -19 13
-35 28 -35 35 0 14 36 27 50 18 5 -3 10 -1 10 4 0 15 -43 14 -58 -1z"/>
<path d="M10314 6595 l1 -50 38 -2 37 -1 0 49 c0 60 -18 65 -22 7 -2 -35 -7
-43 -23 -43 -16 0 -21 9 -26 45 l-7 45 2 -50z"/>
<path d="M10421 6585 l1 -50 8 39 c4 22 15 45 24 52 15 11 14 12 -8 10 -24 -1
-26 -4 -25 -51z"/>
<path d="M10502 6628 c-7 -7 -12 -24 -12 -38 0 -14 5 -31 12 -38 15 -15 45
-15 54 0 4 7 3 8 -5 4 -16 -10 -51 3 -51 20 0 9 11 14 35 14 38 0 40 2 25 31
-12 21 -40 25 -58 7z m48 -13 c11 -13 8 -15 -19 -15 -31 0 -42 14 -18 23 20 9
24 8 37 -8z"/>
<path d="M11515 6460 c-27 -29 -10 -74 28 -78 37 -4 57 13 57 49 0 47 -53 65
-85 29z"/>
<path d="M8993 5965 c0 -46 2 -67 6 -50 l6 29 21 -27 c12 -15 25 -27 30 -27 4
0 -3 11 -16 25 l-23 25 23 25 c13 14 18 25 12 25 -7 0 -17 -9 -24 -20 -19 -31
-27 -24 -31 28 -2 27 -4 14 -4 -33z"/>
<path d="M9660 5965 c0 -80 16 -104 21 -32 5 57 0 107 -12 107 -5 0 -9 -34 -9
-75z"/>
<path d="M8342 5963 l-2 -73 38 2 c36 1 36 1 5 5 l-32 4 -4 67 -3 67 -2 -72z"/>
<path d="M10382 6010 c0 -14 2 -19 5 -12 2 6 2 18 0 25 -3 6 -5 1 -5 -13z"/>
<path d="M8539 6001 c-3 -7 -2 -34 1 -59 4 -36 10 -48 24 -50 18 -4 19 -3 3
13 -22 22 -22 61 1 74 15 9 15 10 0 11 -9 0 -18 6 -20 13 -4 9 -6 9 -9 -2z"/>
<path d="M8442 5978 c-7 -7 -12 -24 -12 -38 0 -14 5 -31 12 -38 15 -15 45 -15
54 0 4 7 3 8 -5 4 -16 -10 -51 3 -51 20 0 9 11 14 35 14 38 0 40 2 25 31 -12
21 -40 25 -58 7z m48 -13 c11 -13 8 -15 -19 -15 -31 0 -42 14 -18 23 20 9 24
8 37 -8z"/>
<path d="M8662 5940 c1 -39 2 -44 5 -18 4 38 25 64 43 53 5 -3 11 -25 12 -48
l1 -42 4 37 c8 70 53 76 53 7 0 -22 5 -39 11 -39 8 0 10 14 6 41 -7 52 -21 68
-46 52 -14 -9 -21 -9 -30 0 -9 9 -16 9 -31 0 -14 -10 -20 -10 -23 0 -3 7 -5
-13 -5 -43z"/>
<path d="M8842 5978 c-7 -7 -12 -24 -12 -38 0 -14 5 -31 12 -38 15 -15 45 -15
54 0 4 7 3 8 -5 4 -16 -10 -51 3 -51 20 0 9 11 14 35 14 38 0 40 2 25 31 -12
21 -40 25 -58 7z m48 -13 c11 -13 8 -15 -19 -15 -31 0 -42 14 -18 23 20 9 24
8 37 -8z"/>
<path d="M9092 5940 c1 -39 2 -44 5 -18 5 42 27 68 45 50 6 -6 14 -28 18 -49
l8 -38 1 41 c1 50 -20 74 -49 56 -14 -9 -20 -8 -23 1 -3 7 -5 -13 -5 -43z"/>
<path d="M9212 5978 c-7 -7 -12 -24 -12 -38 0 -30 16 -50 41 -50 23 0 49 27
49 50 0 39 -52 64 -78 38z m56 -10 c28 -28 1 -75 -38 -63 -14 4 -20 15 -20 35
0 37 33 53 58 28z"/>
<path d="M9310 5987 c-1 -21 23 -97 31 -97 5 0 9 1 9 3 0 7 -39 101 -40 94z"/>
<path d="M9367 5983 c-4 -3 -7 -13 -7 -21 0 -9 3 -12 7 -8 4 4 13 -8 19 -26 6
-18 14 -33 19 -33 4 0 14 20 21 45 16 54 16 53 5 46 -5 -3 -12 -23 -16 -43
l-7 -38 -14 39 c-16 45 -18 48 -27 39z"/>
<path d="M9510 5987 c-1 -21 23 -97 31 -97 5 0 9 1 9 3 0 7 -39 101 -40 94z"/>
<path d="M9567 5983 c-4 -3 -7 -13 -7 -21 0 -9 3 -12 7 -8 4 4 13 -8 19 -26 6
-18 14 -33 19 -33 4 0 14 20 21 45 16 54 16 53 5 46 -5 -3 -12 -23 -16 -43
l-7 -38 -14 39 c-16 45 -18 48 -27 39z"/>
<path d="M9712 5978 c9 -7 19 -31 21 -53 3 -32 4 -30 3 10 -1 42 -4 50 -21 53
-18 4 -19 3 -3 -10z"/>
<path d="M9786 5974 c-19 -18 -21 -55 -4 -72 14 -14 54 -16 62 -3 4 5 -3 7
-14 4 -20 -5 -50 12 -50 28 0 5 16 9 35 9 36 0 46 15 23 38 -16 16 -33 15 -52
-4z m52 -11 c2 -9 -7 -13 -28 -13 -28 0 -31 2 -20 15 15 18 41 16 48 -2z"/>
<path d="M9881 5935 c1 -50 1 -50 9 -12 14 74 56 77 63 5 4 -40 4 -39 3 7 l-1
50 -37 0 -38 1 1 -51z"/>
<path d="M10040 5986 c0 -5 8 -30 17 -57 17 -46 16 -49 -1 -68 -12 -13 -14
-21 -7 -21 7 0 22 24 35 53 30 68 42 116 15 57 l-21 -45 -14 39 c-14 39 -24
56 -24 42z"/>
<path d="M10156 5974 c-31 -30 -9 -84 34 -84 11 0 27 11 36 25 15 23 15 27 0
50 -19 29 -47 32 -70 9z m48 0 c24 -9 21 -61 -4 -69 -39 -12 -66 35 -38 63 14
14 20 14 42 6z"/>
<path d="M10261 5954 c-1 -47 12 -63 51 -61 27 2 28 4 26 52 -1 42 -2 44 -5
13 -5 -42 -27 -68 -45 -50 -6 6 -14 28 -18 49 l-8 38 -1 -41z"/>
<path d="M10421 5935 l1 -50 8 39 c4 22 15 45 24 52 15 11 14 12 -8 10 -24 -1
-26 -4 -25 -51z"/>
<path d="M10502 5978 c-7 -7 -12 -24 -12 -38 0 -14 5 -31 12 -38 15 -15 45
-15 54 0 4 7 3 8 -5 4 -16 -10 -51 3 -51 20 0 9 11 14 35 14 38 0 40 2 25 31
-12 21 -40 25 -58 7z m48 -13 c11 -13 8 -15 -19 -15 -31 0 -42 14 -18 23 20 9
24 8 37 -8z"/>
<path d="M10093 5665 c0 -44 2 -61 4 -37 2 23 2 59 0 80 -2 20 -4 1 -4 -43z"/>
<path d="M10242 5670 l-2 -76 32 1 c24 0 36 6 45 24 20 41 -19 88 -51 61 -12
-9 -15 -5 -19 27 -2 21 -4 4 -5 -37z m66 -26 c3 -33 -15 -49 -43 -38 -18 7
-20 45 -3 62 21 21 43 9 46 -24z"/>
<path d="M10350 5665 c0 -43 4 -75 10 -75 6 0 10 32 10 75 0 43 -4 75 -10 75
-6 0 -10 -32 -10 -75z"/>
<path d="M10505 5720 c-3 -6 1 -7 10 -4 8 4 22 1 30 -6 14 -12 13 -16 -6 -36
-12 -12 -20 -27 -18 -33 2 -6 15 5 28 24 19 29 21 38 11 50 -14 17 -46 20 -55
5z"/>
<path d="M9744 5679 c-4 -7 0 -9 14 -5 24 8 41 -12 21 -25 -10 -6 -11 -9 -1
-9 17 0 15 -29 -3 -36 -23 -9 -38 5 -23 24 11 13 11 14 -2 10 -8 -2 -15 -13
-15 -24 0 -15 8 -19 38 -21 36 -1 37 0 37 36 0 20 -5 42 -12 49 -15 15 -45 16
-54 1z"/>
<path d="M9830 5682 c0 -18 31 -92 39 -92 8 0 43 91 37 97 -2 2 -11 -15 -21
-39 l-17 -43 -14 39 c-15 42 -24 56 -24 38z"/>
<path d="M9946 5681 c-4 -5 2 -7 13 -4 23 6 39 -16 20 -28 -11 -7 -11 -9 -1
-9 8 0 12 -9 10 -22 -2 -11 3 -23 10 -25 15 -6 17 50 2 78 -11 20 -45 26 -54
10z"/>
<path d="M10043 5640 c0 -30 2 -43 4 -27 2 15 2 39 0 55 -2 15 -4 2 -4 -28z"/>
<path d="M10146 5682 c-3 -5 4 -8 16 -8 34 1 32 -22 -2 -29 -25 -5 -31 -11
-28 -28 2 -17 10 -22 36 -22 33 -1 33 -1 30 45 -3 37 -7 46 -25 48 -11 2 -24
-1 -27 -6z m44 -56 c0 -18 -31 -29 -44 -16 -8 8 -7 14 4 20 22 14 40 12 40 -4z"/>
<path d="M10412 5678 c-7 -7 -12 -24 -12 -38 0 -14 5 -31 12 -38 15 -15 45
-15 54 0 4 7 3 8 -5 4 -16 -10 -51 3 -51 20 0 9 11 14 35 14 38 0 40 2 25 31
-12 21 -40 25 -58 7z m48 -13 c11 -13 8 -15 -19 -15 -31 0 -42 14 -18 23 20 9
24 8 37 -8z"/>
<path d="M9934 5625 c-8 -19 3 -35 24 -35 13 0 13 2 -4 15 -16 13 -17 16 -4
25 11 7 11 10 2 10 -7 0 -15 -7 -18 -15z"/>
<path d="M10520 5600 c0 -5 5 -10 10 -10 6 0 10 5 10 10 0 6 -4 10 -10 10 -5
0 -10 -4 -10 -10z"/>
<path d="M10204 5254 c-14 -20 -15 -33 -8 -62 17 -68 74 -51 74 22 0 66 -35
88 -66 40z m50 0 c9 -23 7 -67 -3 -83 -13 -20 -37 -7 -45 22 -12 50 31 105 48
61z"/>
<path d="M10318 5266 c-22 -16 -23 -27 -4 -20 12 4 16 -6 19 -48 3 -51 3 -50
5 15 1 37 1 67 0 67 -2 0 -11 -7 -20 -14z"/>
<path d="M10448 5266 c-22 -16 -23 -27 -4 -20 12 4 16 -6 19 -48 3 -51 3 -50
5 15 1 37 1 67 0 67 -2 0 -11 -7 -20 -14z"/>
<path d="M10540 5271 c33 -9 38 -39 9 -49 l-23 -9 23 -6 c30 -7 24 -39 -9 -48
l-25 -7 27 -1 c34 -1 56 31 34 51 -9 9 -10 17 -3 29 16 26 1 49 -30 48 l-28
-1 25 -7z"/>
<path d="M10621 5213 c1 -37 4 -56 6 -41 3 18 11 28 25 30 52 8 47 70 -6 76
l-26 3 1 -68z m54 27 c0 -18 -6 -26 -22 -28 -20 -3 -23 1 -23 28 0 27 3 31 23
28 16 -2 22 -10 22 -28z"/>
<path d="M10710 5215 c0 -74 20 -91 21 -17 l1 47 22 -50 23 -50 24 55 24 55 6
-55 6 -55 1 68 c1 37 -2 67 -7 67 -4 0 -18 -24 -31 -52 l-22 -53 -24 53 c-13
28 -28 52 -34 52 -6 0 -10 -28 -10 -65z"/>
<path d="M10380 5230 c0 -5 5 -10 10 -10 6 0 10 5 10 10 0 6 -4 10 -10 10 -5
0 -10 -4 -10 -10z"/>
<path d="M10380 5160 c0 -5 5 -10 10 -10 6 0 10 5 10 10 0 6 -4 10 -10 10 -5
0 -10 -4 -10 -10z"/>
<path d="M7642 4724 c-111 -30 -190 -112 -219 -229 -15 -60 -15 -70 0 -130 30
-122 110 -202 232 -232 66 -16 127 -11 195 15 35 14 113 72 106 79 -3 4 -16
-3 -29 -14 -53 -50 -107 -68 -202 -68 -101 0 -158 21 -214 79 -57 60 -76 112
-76 206 0 94 19 146 76 206 56 58 113 79 214 79 101 0 158 -21 214 -79 57 -60
76 -112 76 -208 0 -93 9 -107 19 -30 9 61 -15 150 -54 208 -40 56 -104 100
-176 119 -70 18 -93 18 -162 -1z"/>
<path d="M7711 4683 c-1 -7 -13 -10 -33 -8 -21 3 -28 1 -19 -4 7 -5 10 -14 7
-20 -10 -16 -24 -13 -29 7 -4 15 -5 15 -6 0 -1 -10 -11 -18 -27 -20 -25 -3
-25 -3 -7 -23 18 -19 22 -80 7 -94 -4 -3 -4 6 -2 22 7 37 -8 44 -16 7 -5 -29
-8 -30 -58 -30 -38 0 -49 -3 -38 -10 13 -8 12 -10 -2 -10 -10 0 -18 -4 -18 -9
0 -11 35 -21 77 -21 61 0 44 -19 -19 -22 -50 -2 -63 -6 -66 -20 -3 -14 4 -18
30 -19 38 -1 94 -16 66 -18 -10 -1 -18 -7 -18 -15 0 -8 -6 -17 -12 -19 -10 -4
-10 -6 0 -6 21 -1 3 -21 -19 -21 -11 0 -18 -4 -14 -10 3 -5 12 -7 20 -3 8 3
15 0 15 -6 0 -6 -4 -11 -10 -11 -36 0 26 -73 89 -105 37 -18 50 -12 55 26 3
30 26 79 37 79 5 0 13 -9 19 -21 8 -15 15 -17 24 -10 7 6 22 9 34 6 12 -2 24
0 27 5 10 16 35 -2 35 -25 0 -30 -13 -38 -65 -38 -23 0 -47 3 -54 7 -6 4 -11
3 -11 -1 0 -5 15 -17 33 -28 25 -14 29 -15 19 -3 -11 14 -7 16 44 12 58 -4 58
-4 103 44 51 52 84 128 62 141 -10 6 -9 10 3 14 9 4 16 18 16 33 0 23 -3 25
-25 20 -19 -5 -23 -3 -19 8 3 8 12 12 20 9 18 -7 18 6 0 47 l-13 32 -6 -31
c-6 -28 -9 -30 -26 -19 -15 9 -17 14 -8 20 8 5 7 8 -4 8 -9 0 -20 7 -23 16 -8
20 13 47 31 40 19 -8 16 8 -5 27 -11 10 -36 17 -58 17 -33 1 -36 2 -20 11 14
9 16 13 5 20 -8 4 -19 3 -26 -3 -10 -8 -13 -6 -13 6 0 9 -8 16 -20 16 -11 0
-20 -4 -20 -10 0 -17 -38 -11 -43 8 -3 9 -5 12 -6 5z m34 -117 c48 -20 49 -55
3 -52 -24 1 -33 -4 -36 -17 -3 -16 2 -18 32 -16 44 4 54 -5 31 -31 -19 -21
-55 -27 -55 -10 0 15 -30 12 -47 -6 -18 -17 -30 -9 -33 21 -4 41 -1 48 15 35
8 -7 22 -9 31 -6 13 5 14 9 4 21 -7 8 -21 15 -31 15 -21 0 -24 12 -9 41 13 23
47 25 95 5z m-165 -72 c0 -2 -17 -4 -37 -3 -33 1 -35 2 -13 8 23 7 50 4 50 -5z
m241 -57 c-10 -9 -11 -8 -5 6 3 10 9 15 12 12 3 -3 0 -11 -7 -18z m-120 -47
c6 0 7 5 4 10 -4 6 6 10 22 10 27 -1 27 -1 9 -15 -25 -19 -50 -19 -65 -1 -9
11 -9 15 1 18 7 3 14 -1 16 -9 2 -7 8 -13 13 -13z"/>
<path d="M7516 4581 c-4 -6 -3 -19 3 -28 9 -17 10 -17 17 0 8 21 -10 45 -20
28z"/>
<path d="M8336 4511 c-4 -5 2 -7 11 -5 25 6 47 -11 40 -30 -4 -9 -17 -16 -29
-17 -21 -1 -21 -1 5 -11 16 -6 27 -17 27 -28 0 -20 -33 -36 -50 -25 -5 3 -10
1 -10 -4 0 -20 49 -11 64 11 14 19 14 24 2 37 -11 10 -12 18 -3 32 8 13 8 21
-2 33 -15 17 -47 21 -55 7z"/>
<path d="M8490 4505 c-28 -34 -9 -125 26 -125 37 0 58 74 34 121 -13 23 -43
25 -60 4z m48 -7 c17 -17 15 -83 -3 -98 -12 -10 -18 -10 -30 0 -27 22 -15 110
15 110 3 0 11 -5 18 -12z"/>
<path d="M8600 4505 c-28 -34 -9 -125 26 -125 37 0 58 74 34 121 -13 23 -43
25 -60 4z m48 -7 c17 -17 15 -83 -3 -98 -12 -10 -18 -10 -30 0 -27 22 -15 110
15 110 3 0 11 -5 18 -12z"/>
<path d="M8990 4511 c0 -5 8 -7 19 -4 29 7 35 -14 12 -43 -22 -27 -27 -44 -13
-44 4 0 15 17 25 36 14 28 15 39 6 50 -13 16 -49 19 -49 5z"/>
<path d="M9080 4511 c0 -5 8 -7 19 -4 29 7 35 -14 12 -43 -22 -27 -27 -44 -13
-44 4 0 15 17 25 36 14 28 15 39 6 50 -13 16 -49 19 -49 5z"/>
<path d="M8702 4405 c1 -44 3 -65 5 -47 4 28 7 31 28 26 29 -7 60 34 50 65 -7
25 -41 37 -60 21 -10 -8 -14 -8 -18 2 -3 7 -5 -23 -5 -67z m66 27 c2 -22 -2
-34 -12 -38 -34 -13 -61 37 -34 64 21 21 43 9 46 -26z"/>
<path d="M8823 4430 c0 -30 2 -43 4 -27 2 15 2 39 0 55 -2 15 -4 2 -4 -28z"/>
<path d="M8863 4469 c11 -7 18 -24 19 -52 l1 -42 4 37 c4 39 28 67 43 52 5 -5
10 -27 13 -49 4 -39 4 -39 5 8 2 51 -15 70 -42 48 -10 -8 -16 -9 -21 -1 -3 5
-14 10 -23 10 -16 -1 -16 -1 1 -11z"/>
<path d="M7975 4300 c-27 -29 -10 -74 28 -78 37 -4 57 13 57 49 0 47 -53 65
-85 29z"/>
<path d="M7685 4250 c3 -5 11 -10 16 -10 6 0 7 5 4 10 -3 6 -11 10 -16 10 -6
0 -7 -4 -4 -10z"/>
<path d="M7790 4250 c-13 -8 -13 -10 2 -10 9 0 20 5 23 10 8 13 -5 13 -25 0z"/>
<path d="M8200 4041 c0 -23 -4 -28 -18 -24 -25 6 -44 -20 -40 -54 3 -25 7 -28
41 -30 l37 -1 0 69 c0 39 -4 69 -10 69 -5 0 -10 -13 -10 -29z m-5 -66 c0 -23
-4 -30 -20 -30 -21 0 -31 25 -21 51 11 28 41 12 41 -21z"/>
<path d="M8500 4039 c0 -18 -4 -28 -10 -24 -16 10 -47 -4 -52 -23 -3 -10 -1
-28 3 -40 7 -17 15 -22 39 -20 l30 2 0 68 c0 37 -2 68 -5 68 -3 0 -5 -14 -5
-31z m-5 -64 c0 -23 -4 -30 -20 -30 -21 0 -31 25 -21 51 11 28 41 12 41 -21z"/>
<path d="M8060 3995 l0 -65 33 1 c30 2 30 2 5 6 -22 3 -28 10 -28 28 0 18 6
25 28 28 l27 4 -27 2 c-23 1 -28 6 -28 25 0 19 6 26 28 29 25 4 25 4 -5 6
l-33 1 0 -65z"/>
<path d="M8710 4041 c-23 -44 -5 -111 30 -111 23 0 40 28 40 65 0 37 -17 65
-40 65 -11 0 -24 -9 -30 -19z m51 -15 c14 -30 4 -75 -17 -83 -20 -7 -34 13
-34 49 0 59 31 79 51 34z"/>
<path d="M8828 4046 c-22 -16 -23 -27 -4 -20 12 4 16 -6 19 -48 3 -51 3 -50 5
15 1 37 1 67 0 67 -2 0 -11 -7 -20 -14z"/>
<path d="M8958 4046 c-22 -16 -23 -27 -4 -20 12 4 16 -6 19 -48 3 -51 3 -50 5
15 1 37 1 67 0 67 -2 0 -11 -7 -20 -14z"/>
<path d="M9050 4051 c33 -9 38 -39 9 -49 l-23 -9 23 -6 c30 -7 24 -39 -9 -48
l-25 -7 27 -1 c34 -1 56 31 34 51 -9 9 -10 17 -3 29 16 26 1 49 -30 48 l-28
-1 25 -7z"/>
<path d="M9131 3993 c1 -37 4 -56 6 -41 3 18 11 28 25 30 52 8 47 70 -6 76
l-26 3 1 -68z m54 27 c0 -18 -6 -26 -22 -28 -20 -3 -23 1 -23 28 0 27 3 31 23
28 16 -2 22 -10 22 -28z"/>
<path d="M9220 3995 c0 -74 20 -91 21 -17 l1 47 22 -50 23 -50 24 55 24 55 6
-55 6 -55 1 68 c1 37 -2 67 -7 67 -4 0 -18 -24 -31 -52 l-22 -53 -24 53 c-13
28 -28 52 -34 52 -6 0 -10 -28 -10 -65z"/>
<path d="M8301 4038 c-1 -9 -7 -19 -13 -21 -10 -4 -10 -6 0 -6 7 -1 12 -16 12
-41 0 -32 4 -40 18 -39 10 0 12 3 5 6 -7 2 -13 20 -13 39 0 20 5 34 13 34 8 0
9 3 1 8 -6 4 -14 14 -17 22 -4 12 -6 12 -6 -2z"/>
<path d="M8253 3975 c0 -27 2 -38 4 -22 2 15 2 37 0 50 -2 12 -4 0 -4 -28z"/>
<path d="M8348 3994 c-15 -31 -1 -58 31 -60 17 -1 18 -1 2 3 -11 2 -22 11 -25
19 -4 10 3 14 29 14 38 0 40 2 25 31 -15 27 -48 24 -62 -7z m52 1 c0 -9 -9
-15 -25 -15 -18 0 -23 4 -19 15 4 8 15 15 25 15 10 0 19 -7 19 -15z"/>
<path d="M8890 4010 c0 -5 5 -10 10 -10 6 0 10 5 10 10 0 6 -4 10 -10 10 -5 0
-10 -4 -10 -10z"/>
<path d="M8598 3983 c6 -2 18 -2 25 0 6 3 1 5 -13 5 -14 0 -19 -2 -12 -5z"/>
<path d="M8890 3940 c0 -5 5 -10 10 -10 6 0 10 5 10 10 0 6 -4 10 -10 10 -5 0
-10 -4 -10 -10z"/>
<path d="M11189 3517 c-63 -18 -133 -61 -163 -100 -34 -44 -66 -116 -65 -147
0 -19 4 -14 14 17 44 142 149 223 290 223 141 0 246 -81 290 -223 11 -33 14
-37 14 -16 1 37 -55 144 -92 175 -77 66 -200 96 -288 71z"/>
<path d="M11190 3468 c-78 -21 -168 -116 -182 -193 l-5 -25 108 0 c98 0 109 2
109 18 0 10 10 26 23 37 20 18 21 20 4 23 -15 3 -17 9 -12 30 8 32 21 42 57
42 44 0 58 -23 55 -91 l-2 -59 92 0 92 0 -14 45 c-40 136 -184 212 -325 173z"/>
<path d="M11310 3317 c0 -10 8 -17 18 -17 9 0 13 4 7 8 -5 4 -13 11 -17 16 -5
5 -8 2 -8 -7z"/>
<path d="M10553 3285 c0 -22 2 -30 4 -17 2 12 2 30 0 40 -3 9 -5 -1 -4 -23z"/>
<path d="M10203 3284 c-14 -14 -23 -27 -20 -30 3 -3 17 7 32 21 17 18 33 25
46 22 10 -3 19 -1 19 4 0 19 -52 8 -77 -17z"/>
<path d="M10326 3262 c-2 -4 10 -8 29 -8 19 0 31 4 29 8 -3 4 -16 8 -29 8 -13
0 -26 -4 -29 -8z"/>
<path d="M10446 3262 c-2 -4 11 -8 30 -8 20 0 29 3 21 8 -16 10 -44 10 -51 0z"/>
<path d="M7531 2901 c-55 -64 -62 -88 -33 -114 30 -27 55 -20 102 28 24 25 40
45 34 45 -6 0 -26 -16 -44 -35 -42 -43 -83 -46 -88 -5 -4 32 87 126 112 117 9
-4 16 -11 16 -17 0 -17 -78 -96 -86 -87 -4 4 5 20 19 35 40 41 33 52 -8 12
-38 -37 -44 -57 -19 -67 10 -4 30 8 55 33 53 51 62 69 49 94 -20 37 -53 24
-109 -39z"/>
<path d="M10819 2931 c-56 -57 -27 -145 53 -158 32 -5 41 -1 68 25 22 23 30
40 30 67 0 48 -44 95 -90 95 -22 0 -41 -9 -61 -29z m46 -40 c7 -12 -12 -24
-25 -16 -11 7 -4 25 10 25 5 0 11 -4 15 -9z m63 -9 c2 -7 -3 -12 -12 -12 -9 0
-16 7 -16 16 0 17 22 14 28 -4z m2 -53 c0 -20 -72 -25 -88 -6 -8 9 1 12 39 12
27 0 49 -3 49 -6z"/>
<path d="M11631 2941 c-27 -49 0 -127 36 -105 14 9 18 24 18 65 0 48 -2 54
-22 57 -14 2 -26 -4 -32 -17z"/>
<path d="M8111 2920 c0 -8 4 -24 9 -35 5 -13 9 -14 9 -5 0 8 -4 24 -9 35 -5
13 -9 14 -9 5z"/>
<path d="M8185 2911 c-4 -13 -4 -25 -1 -28 3 -4 6 2 7 13 0 18 1 18 9 -1 6
-13 9 -15 9 -5 0 8 -3 21 -8 29 -7 11 -10 9 -16 -8z"/>
<path d="M8266 2915 c-3 -9 -6 -22 -5 -28 0 -7 5 -1 10 12 5 13 8 26 5 28 -2
2 -6 -3 -10 -12z"/>
<path d="M8422 2893 c-7 -7 -8 -13 -3 -13 5 0 11 -19 13 -42 2 -23 8 -43 16
-44 7 -1 8 0 2 3 -12 6 -13 80 -1 85 5 2 4 8 -3 14 -8 8 -15 7 -24 -3z"/>
<path d="M8313 2840 c0 -30 2 -43 4 -27 2 15 2 39 0 55 -2 15 -4 2 -4 -28z"/>
<path d="M8383 2840 c0 -30 2 -43 4 -27 2 15 2 39 0 55 -2 15 -4 2 -4 -28z"/>
<path d="M8666 2882 c-3 -5 5 -8 17 -8 18 1 22 -5 24 -38 5 -53 13 -59 13 -10
0 40 -14 64 -36 64 -7 0 -15 -4 -18 -8z"/>
<path d="M8813 2840 c0 -30 2 -43 4 -27 2 15 2 39 0 55 -2 15 -4 2 -4 -28z"/>
<path d="M8853 2879 c11 -7 18 -24 19 -52 l1 -42 4 38 c4 38 -9 67 -31 67 -6
0 -3 -5 7 -11z"/>
<path d="M8913 2878 c9 -7 18 -31 20 -53 l4 -40 1 46 c2 35 -2 48 -14 53 -25
10 -29 7 -11 -6z"/>
<path d="M8989 2873 c-13 -16 -12 -17 3 -4 19 14 48 9 48 -9 0 -5 -16 -10 -35
-10 -24 0 -35 -5 -35 -14 0 -20 28 -46 48 -46 12 0 10 4 -7 13 -39 20 -38 37
3 37 37 0 47 15 24 38 -17 17 -33 15 -49 -5z"/>
<path d="M9108 2883 c7 -3 16 -2 19 1 4 3 -2 6 -13 5 -11 0 -14 -3 -6 -6z"/>
<path d="M9266 2881 c-4 -5 2 -7 13 -4 23 6 39 -16 20 -28 -9 -6 -10 -9 -2 -9
6 0 14 -12 16 -27 3 -21 4 -17 6 13 1 40 -12 64 -35 64 -7 0 -15 -4 -18 -9z"/>
<path d="M9365 2874 c-8 -9 -15 -24 -15 -34 0 -21 25 -50 43 -50 6 0 1 7 -11
16 -25 18 -29 46 -7 64 32 26 69 -16 46 -52 -7 -11 -8 -17 -2 -14 5 3 12 -2
14 -11 3 -10 5 7 6 37 1 54 0 55 -29 57 -16 1 -36 -5 -45 -13z"/>
<path d="M11591 2872 c-1 -13 12 -37 29 -54 35 -35 35 -35 13 -41 -10 -3 0 -5
22 -5 22 0 32 2 23 5 -25 6 -22 18 7 31 25 11 41 50 32 74 -3 7 -6 1 -6 -13
-2 -69 -85 -76 -108 -9 -9 28 -12 30 -12 12z"/>
<path d="M8497 2873 c-10 -10 -8 -61 2 -67 5 -4 7 3 4 13 -4 17 1 20 34 24
l38 4 -39 1 c-29 2 -37 5 -32 17 6 16 3 19 -7 8z"/>
<path d="M9081 2868 c-1 -17 36 -45 46 -35 2 3 -5 8 -16 12 -11 3 -22 14 -24
23 -4 16 -5 16 -6 0z"/>
<path d="M9477 2873 c-11 -11 -8 -58 5 -71 7 -7 21 -12 33 -11 17 1 16 2 -5 8
-14 4 -26 15 -28 24 -3 13 4 17 32 17 20 0 36 4 36 8 0 4 -16 6 -37 4 -30 -4
-35 -2 -30 12 7 17 5 20 -6 9z"/>
<path d="M8211 2854 c0 -11 3 -14 6 -6 3 7 2 16 -1 19 -3 4 -6 -2 -5 -13z"/>
<path d="M8251 2854 c0 -11 3 -14 6 -6 3 7 2 16 -1 19 -3 4 -6 -2 -5 -13z"/>
<path d="M8160 2824 c0 -16 -2 -17 -10 -4 -8 13 -10 13 -10 -2 0 -26 18 -31
25 -7 4 11 4 23 1 26 -3 4 -6 -2 -6 -13z"/>
<path d="M8650 2829 c0 -5 5 -7 10 -4 6 3 10 8 10 11 0 2 -4 4 -10 4 -5 0 -10
-5 -10 -11z"/>
<path d="M9254 2825 c-8 -19 4 -35 24 -34 14 1 14 2 -1 6 -13 3 -17 11 -14 24
6 22 -1 26 -9 4z"/>
<path d="M8220 2825 c0 -5 4 -16 9 -23 6 -11 10 -10 15 4 3 9 4 19 1 22 -3 3
-5 -1 -5 -9 0 -11 -2 -11 -10 1 -5 8 -10 11 -10 5z"/>
<path d="M9211 2814 c0 -11 3 -14 6 -6 3 7 2 16 -1 19 -3 4 -6 -2 -5 -13z"/>
<path d="M8657 2799 c7 -7 15 -10 18 -7 3 3 -2 9 -12 12 -14 6 -15 5 -6 -5z"/>
<path d="M9105 2800 c-16 -7 -17 -9 -3 -9 9 -1 20 4 23 9 7 11 7 11 -20 0z"/>
<path d="M11045 468 c1 -15 4 -30 7 -33 7 -8 38 5 38 16 0 15 27 10 34 -6 3
-8 10 -15 16 -15 5 0 10 7 10 15 0 8 -6 15 -14 15 -7 0 -19 6 -25 14 -6 8 -24
16 -40 18 -25 4 -27 1 -26 -24z"/>
<path d="M661 446 c-17 -20 -4 -56 20 -56 26 0 24 -19 -3 -30 l-23 -9 23 0
c16 -1 26 7 33 27 20 51 -19 105 -50 68z m39 -21 c0 -25 -23 -35 -35 -15 -10
16 2 40 20 40 9 0 15 -9 15 -25z"/>
<path d="M746 451 c-3 -5 3 -7 14 -4 15 4 20 0 20 -16 0 -13 -7 -21 -17 -22
-13 0 -12 -3 5 -10 29 -11 24 -31 -9 -40 -22 -6 -22 -7 -3 -8 26 -1 49 23 38
41 -4 7 -8 24 -8 38 -1 25 -29 40 -40 21z"/>
<path d="M820 440 c0 -15 5 -20 18 -18 9 2 17 10 17 18 0 8 -8 16 -17 18 -13
2 -18 -3 -18 -18z m30 0 c0 -5 -4 -10 -10 -10 -5 0 -10 5 -10 10 0 6 5 10 10
10 6 0 10 -4 10 -10z"/>
<path d="M881 403 c1 -32 4 -46 6 -31 3 18 12 28 26 31 l22 4 -22 2 c-16 1
-23 7 -23 20 0 12 8 21 23 24 19 4 18 4 -5 6 -28 1 -28 0 -27 -56z"/>
<path d="M18460 450 c-9 -6 -10 -10 -3 -10 7 0 13 -20 16 -47 3 -47 3 -47 5
10 1 31 1 57 0 57 -2 0 -10 -5 -18 -10z"/>
<path d="M18550 435 c0 -19 5 -25 21 -25 15 0 20 -5 17 -22 -2 -16 -10 -23
-25 -22 -12 0 -20 -3 -17 -8 10 -16 43 -8 54 13 13 23 -2 49 -26 49 -23 0 -16
28 9 33 19 4 18 4 -5 6 -24 1 -28 -3 -28 -24z"/>
<path d="M18636 444 c-10 -26 -7 -34 13 -34 37 0 34 -43 -4 -53 -19 -4 -19 -5
1 -6 45 -2 57 55 14 66 -26 7 -25 21 3 33 22 9 22 9 1 9 -12 1 -25 -6 -28 -15z"/>
<path d="M18751 403 c1 -32 4 -48 6 -35 3 13 12 22 23 22 11 0 24 9 30 21 14
26 -3 49 -36 49 -23 0 -24 -3 -23 -57z m46 31 c8 -21 -13 -42 -28 -27 -13 13
-5 43 11 43 6 0 13 -7 17 -16z"/>
<path d="M18842 403 l1 -58 6 45 6 45 19 -45 18 -45 21 45 21 45 6 -45 7 -45
1 58 c1 31 -2 57 -8 57 -5 0 -18 -19 -29 -42 l-19 -43 -18 43 c-9 23 -21 42
-26 42 -4 0 -7 -26 -6 -57z"/>
<path d="M10280 300 l0 -150 150 0 150 0 0 150 0 150 -150 0 -150 0 0 -150z
m194 59 c18 -14 26 -30 26 -53 0 -39 -24 -76 -50 -76 -17 0 -17 2 5 25 30 29
32 56 5 80 -47 43 -105 -22 -61 -69 25 -26 26 -36 7 -36 -19 0 -56 48 -56 72
0 25 53 78 78 78 11 0 31 -9 46 -21z"/>
<path d="M10935 439 c-17 -4 -43 -22 -59 -38 -27 -28 -27 -30 -12 -60 16 -30
16 -31 -5 -31 -19 0 -21 -4 -16 -36 9 -53 33 -83 84 -106 24 -11 46 -18 47
-16 1 1 12 19 24 38 l21 36 -34 -4 c-65 -8 -107 66 -69 123 15 23 74 52 74 35
0 -4 3 -16 7 -25 5 -14 2 -16 -16 -10 -13 4 -28 2 -36 -5 -19 -16 -19 -64 -1
-79 22 -19 70 -9 81 16 6 15 21 23 54 28 54 8 91 31 91 56 0 22 -32 41 -54 33
-10 -4 -16 -1 -16 8 0 7 -9 14 -21 15 -14 1 -19 -3 -16 -12 3 -7 -2 -15 -11
-18 -9 -3 -24 -8 -33 -11 -12 -5 -18 0 -21 19 -3 14 -1 28 3 31 5 3 9 9 9 15
0 11 -34 10 -75 -2z"/>
<path d="M16760 395 c0 -54 1 -55 28 -54 23 2 24 2 5 6 -14 3 -23 12 -23 23 0
11 9 20 23 23 l22 4 -22 2 c-16 1 -23 7 -23 20 0 12 8 21 23 24 19 4 18 4 -5
6 -27 1 -28 0 -28 -54z"/>
<path d="M16842 393 c1 -57 1 -57 7 -14 l6 44 23 -42 c13 -22 27 -41 33 -41 5
0 8 26 7 58 l-1 57 -6 -49 -6 -49 -23 41 c-34 62 -42 61 -40 -5z"/>
<path d="M16957 432 c-34 -37 -11 -92 39 -92 20 0 24 5 24 30 0 22 -5 30 -17
29 -11 0 -13 -3 -5 -6 17 -7 15 -43 -2 -43 -18 0 -46 27 -46 45 0 22 31 47 51
42 11 -3 19 -1 19 4 0 16 -46 9 -63 -9z"/>
<path d="M5985 431 c-53 -17 -85 -59 -85 -114 0 -31 7 -46 35 -74 34 -34 38
-35 90 -31 50 4 57 2 82 -24 28 -29 53 -37 53 -16 0 7 -12 25 -27 40 -25 27
-26 30 -14 64 18 50 7 97 -30 128 -17 14 -37 26 -44 26 -7 0 -19 2 -27 4 -7 2
-22 1 -33 -3z m93 -57 c40 -45 25 -106 -33 -130 -58 -24 -115 14 -115 76 0 83
92 117 148 54z"/>
<path d="M9750 327 l0 -113 64 -31 64 -32 66 31 66 32 0 113 c0 73 -4 113 -11
113 -5 0 -35 -11 -66 -25 l-55 -26 -55 26 c-31 14 -59 25 -64 25 -5 0 -9 -51
-9 -113z m114 12 c5 -5 26 1 48 12 46 23 51 17 46 -57 -3 -46 -6 -50 -41 -68
-37 -18 -40 -18 -78 -1 l-39 18 0 63 0 64 28 -12 c15 -7 31 -15 36 -19z"/>
<path d="M12626 388 c-58 -51 -58 -51 -86 -35 -51 30 -69 13 -30 -28 l20 -22
-20 -18 c-24 -22 -26 -55 -3 -55 9 0 26 9 37 19 21 20 21 20 81 -34 65 -59 91
-69 81 -32 -3 12 -6 29 -6 38 0 9 -18 28 -40 43 -22 14 -40 30 -40 35 0 6 18
22 40 38 34 24 40 33 40 66 0 20 -4 37 -8 37 -4 0 -34 -23 -66 -52z"/>
<path d="M13125 430 c-72 -30 -106 -133 -66 -197 28 -44 63 -65 113 -65 88 -2
138 49 138 140 0 96 -96 159 -185 122z m120 -54 c28 -28 40 -66 31 -101 -8
-31 -40 -65 -61 -65 -22 0 -18 39 6 59 17 13 19 23 14 51 -6 35 -7 35 -58 34
l-52 -2 -3 -42 c-3 -35 0 -42 17 -47 11 -3 18 -10 15 -15 -3 -5 -13 -7 -23 -4
-12 5 -11 2 3 -9 21 -16 16 -31 -8 -22 -25 10 -50 58 -49 95 2 79 112 124 168
68z"/>
<path d="M7033 398 c-36 -40 -42 -62 -41 -149 l2 -85 91 1 c102 0 133 13 160
66 15 29 15 31 -10 60 l-25 31 0 -37 c0 -30 -3 -36 -16 -31 -9 3 -18 6 -20 6
-9 0 -3 67 7 77 7 7 6 12 -5 16 -13 5 -16 -3 -16 -53 l0 -60 -60 0 -60 0 0 60
0 59 58 3 57 3 -49 28 c-27 15 -49 27 -51 27 -1 0 -11 -10 -22 -22z"/>
<path d="M13617 413 c-12 -11 -8 -23 8 -23 8 0 15 7 15 15 0 16 -12 20 -23 8z"/>
<path d="M13660 405 c0 -8 7 -15 15 -15 8 0 15 7 15 15 0 8 -7 15 -15 15 -8 0
-15 -7 -15 -15z"/>
<path d="M13710 406 c0 -9 7 -16 16 -16 9 0 14 5 12 12 -6 18 -28 21 -28 4z"/>
<path d="M9257 311 c-10 -57 -16 -105 -14 -107 2 -2 33 -1 68 3 l64 8 -45 5
-45 5 -5 95 -5 95 -18 -104z"/>
<path d="M5561 354 l-43 -49 42 -3 c23 -2 44 -1 47 1 2 3 3 26 1 53 l-3 48
-44 -50z"/>
<path d="M8636 393 c-3 -4 -6 -52 -6 -108 0 -135 0 -135 147 -135 144 0 145 0
141 141 l-3 104 -137 2 c-75 1 -139 -1 -142 -4z m194 -88 c0 -20 -5 -25 -25
-25 -20 0 -25 5 -25 25 0 20 5 25 25 25 20 0 25 -5 25 -25z m-60 -60 c0 -20
-5 -25 -25 -25 -20 0 -25 5 -25 25 0 20 5 25 25 25 20 0 25 -5 25 -25z m60 0
c0 -20 -5 -25 -25 -25 -20 0 -25 5 -25 25 0 20 5 25 25 25 20 0 25 -5 25 -25z"/>
<path d="M16411 386 c-26 -14 -50 -52 -50 -76 0 -8 6 -1 13 16 26 60 87 81
136 47 l24 -17 -24 -7 c-23 -6 -22 -7 8 -8 30 -1 32 1 31 32 -1 17 -3 24 -6
15 -4 -16 -7 -16 -33 -3 -35 18 -67 19 -99 1z"/>
<path d="M17879 375 c-15 -28 -14 -31 2 -46 16 -16 18 -15 28 7 6 13 6 24 1
24 -5 0 -10 10 -12 23 -3 21 -4 20 -19 -8z"/>
<path d="M311 372 c-1 -7 -5 -11 -10 -8 -10 6 -21 -16 -21 -41 0 -11 7 -7 21
11 11 14 18 32 16 39 -4 9 -6 9 -6 -1z"/>
<path d="M8134 370 c-30 -12 -54 -49 -54 -83 l0 -28 29 22 c20 15 37 20 54 15
19 -4 26 -1 35 18 6 14 21 26 34 28 22 3 21 5 -9 21 -35 19 -57 20 -89 7z"/>
<path d="M11434 370 c-30 -12 -54 -49 -54 -83 l0 -28 29 22 c20 15 37 20 54
15 19 -4 26 -1 35 18 6 14 21 26 34 28 22 3 21 5 -9 21 -35 19 -57 20 -89 7z"/>
<path d="M11988 373 l-58 -4 0 -69 0 -70 39 0 c23 0 44 -6 51 -16 8 -8 25 -14
39 -12 26 3 26 4 26 88 0 96 8 90 -97 83z m52 -38 c0 -8 -4 -15 -10 -15 -5 0
-10 -13 -10 -30 0 -20 -5 -30 -15 -30 -10 0 -15 10 -15 30 0 17 -4 30 -10 30
-5 0 -10 7 -10 15 0 10 11 15 35 15 24 0 35 -5 35 -15z"/>
<path d="M17326 369 c-30 -8 -66 -36 -66 -51 0 -6 14 2 31 16 42 36 96 35 140
-1 18 -15 30 -21 27 -13 -12 37 -83 64 -132 49z"/>
<path d="M13610 355 c0 -8 7 -15 15 -15 8 0 15 7 15 15 0 8 -7 15 -15 15 -8 0
-15 -7 -15 -15z"/>
<path d="M17620 356 c-6 -8 -21 -16 -33 -18 -18 -2 -22 -10 -22 -38 0 -28 4
-36 22 -38 12 -2 27 -10 33 -18 23 -27 30 -14 30 56 0 70 -7 83 -30 56z m20
-56 c0 -45 -2 -49 -17 -41 -10 5 -26 12 -35 15 -10 3 -18 15 -18 26 0 11 8 23
18 26 9 3 24 9 32 14 8 5 16 9 18 9 1 1 2 -22 2 -49z"/>
<path d="M6432 263 l3 -98 110 0 110 0 -1 35 0 35 -69 3 c-40 2 -73 8 -77 15
-4 7 -8 33 -8 60 l0 47 -35 0 -36 0 3 -97z"/>
<path d="M17695 345 c5 -11 9 -31 9 -45 0 -14 -4 -34 -9 -45 -8 -18 -7 -19 8
-6 11 8 17 28 17 51 0 23 -6 43 -17 51 -15 13 -16 12 -8 -6z"/>
<path d="M17978 353 l42 -4 0 -50 0 -50 -72 3 -73 3 -7 35 -6 35 1 -40 2 -40
78 -3 c72 -3 79 -1 84 18 3 11 12 20 19 20 8 0 14 9 14 20 0 11 -6 20 -14 20
-7 0 -16 9 -19 20 -4 17 -13 20 -49 18 l-43 -1 43 -4z"/>
<path d="M420 315 c0 -19 -6 -44 -12 -55 -16 -24 0 -55 27 -55 27 0 43 31 27
55 -6 11 -12 36 -12 55 0 24 -5 35 -15 35 -10 0 -15 -11 -15 -35z m40 -75 c0
-5 -4 -10 -9 -10 -6 0 -13 5 -16 10 -3 6 1 10 9 10 9 0 16 -4 16 -10z"/>
<path d="M15815 298 l-40 -43 43 40 42 39 43 -39 42 -40 -40 43 c-21 23 -42
42 -45 42 -3 0 -24 -19 -45 -42z"/>
<path d="M17318 324 c-16 -8 -28 -19 -28 -25 0 -6 10 -3 22 5 12 9 34 16 48
16 14 0 36 -7 48 -16 12 -8 22 -10 22 -5 0 12 -52 41 -72 41 -7 -1 -25 -8 -40
-16z"/>
<path d="M17665 300 c0 -36 1 -39 12 -24 7 10 13 21 13 24 0 3 -6 14 -13 24
-11 15 -12 12 -12 -24z"/>
<path d="M17918 316 c-6 -14 -15 -26 -20 -26 -4 0 -8 -7 -8 -16 0 -12 10 -14
53 -12 l52 3 0 35 c0 32 -3 35 -32 38 -27 3 -35 -1 -45 -22z"/>
<path d="M12160 286 c0 -24 -3 -51 -6 -60 -5 -12 0 -16 20 -16 32 0 48 29 44
78 -3 32 -7 37 -30 40 -27 3 -28 2 -28 -42z"/>
<path d="M16128 296 c-7 -39 -4 -55 8 -44 3 3 4 23 2 44 l-3 39 -7 -39z"/>
<path d="M13612 308 c6 -18 28 -21 28 -4 0 9 -7 16 -16 16 -9 0 -14 -5 -12
-12z"/>
<path d="M16475 283 c-11 -11 -15 -26 -11 -45 7 -34 -15 -38 -54 -11 l-24 17
24 7 c23 6 22 7 -7 8 -31 1 -33 -1 -32 -31 1 -18 3 -25 6 -16 4 16 7 16 31 4
61 -31 152 -10 152 35 0 42 -54 63 -85 32z"/>
<path d="M17333 293 c-7 -2 -13 -9 -13 -14 0 -6 8 -5 20 1 14 8 26 8 40 0 11
-6 20 -7 20 -1 0 17 -40 26 -67 14z"/>
<path d="M5374 238 c-22 -24 -40 -49 -38 -55 1 -7 2 -17 3 -23 0 -5 28 -10 60
-10 67 0 68 1 63 81 -3 43 -7 49 -26 49 -13 0 -39 -18 -62 -42z"/>
<path d="M5480 215 l0 -65 64 0 c74 0 80 6 70 81 l-7 49 -63 0 -64 0 0 -65z"/>
<path d="M653 205 c0 -33 2 -48 4 -32 4 22 9 27 33 27 24 0 29 -5 33 -27 2
-16 4 -1 4 32 0 33 -2 48 -4 33 -4 -23 -9 -28 -33 -28 -24 0 -29 5 -33 28 -2
15 -4 0 -4 -33z"/>
<path d="M1260 205 c0 -32 2 -56 5 -53 8 8 9 98 1 105 -3 4 -6 -20 -6 -52z"/>
<path d="M13748 253 c7 -3 16 -2 19 1 4 3 -2 6 -13 5 -11 0 -14 -3 -6 -6z"/>
<path d="M17350 250 c0 -5 5 -10 10 -10 6 0 10 5 10 10 0 6 -4 10 -10 10 -5 0
-10 -4 -10 -10z"/>
<path d="M18284 246 c-11 -28 1 -51 24 -50 31 1 25 -28 -8 -37 -21 -6 -22 -7
-4 -8 11 -1 25 4 32 11 13 13 16 56 6 82 -8 20 -43 21 -50 2z m43 -12 c8 -21
-13 -42 -28 -27 -13 13 -5 43 11 43 6 0 13 -7 17 -16z"/>
<path d="M18373 203 c-13 -31 -21 -58 -19 -60 2 -2 14 21 26 52 12 31 21 58
19 60 -3 2 -14 -22 -26 -52z"/>
<path d="M18426 251 c-4 -5 2 -7 13 -4 31 8 35 -17 7 -46 -35 -37 -33 -51 7
-50 30 2 30 2 5 6 -26 4 -41 23 -18 23 16 0 41 46 34 64 -7 17 -39 22 -48 7z"/>
<path d="M18506 252 c-3 -5 4 -8 16 -8 31 1 33 -20 4 -45 -36 -31 -33 -49 7
-48 31 2 31 2 3 6 l-28 5 27 28 c15 15 25 36 23 47 -3 19 -42 31 -52 15z"/>
<path d="M18597 200 c-14 -33 -23 -60 -21 -60 7 0 56 112 51 116 -2 2 -15 -23
-30 -56z"/>
<path d="M18645 250 c-5 -9 -1 -10 14 -5 34 11 39 -22 7 -51 -36 -34 -33 -44
12 -43 30 2 32 3 10 6 -33 5 -35 14 -8 38 26 24 22 59 -7 63 -11 2 -24 -2 -28
-8z"/>
<path d="M18729 236 c-14 -29 -4 -75 16 -83 23 -8 45 16 45 51 0 55 -41 76
-61 32z m47 -10 c7 -31 -3 -66 -21 -66 -16 0 -26 38 -18 68 7 29 31 28 39 -2z"/>
<path d="M18816 251 c-3 -5 3 -7 14 -4 27 7 27 -27 0 -52 -30 -28 -25 -45 13
-44 30 2 30 2 5 6 -33 5 -36 18 -7 33 14 8 19 19 17 38 -3 27 -31 42 -42 23z"/>
<path d="M18913 253 c9 -2 17 -13 17 -24 0 -11 -7 -19 -17 -20 -13 0 -12 -3 5
-10 29 -11 24 -31 -9 -41 -22 -6 -21 -7 6 -5 23 2 31 7 33 25 2 12 -2 22 -9
22 -9 0 -9 3 0 14 16 19 3 46 -23 45 -16 -1 -17 -2 -3 -6z"/>
<path d="M848 237 c-7 -22 7 -80 20 -83 7 -1 8 0 2 3 -12 6 -13 60 -1 65 5 2
3 8 -4 15 -10 9 -14 9 -17 0z"/>
<path d="M1212 234 c-7 -8 -8 -14 -2 -14 5 0 10 -16 10 -35 0 -19 3 -35 8 -35
7 0 8 88 0 95 -1 1 -9 -3 -16 -11z"/>
<path d="M16833 195 c0 -33 2 -45 4 -27 2 18 2 45 0 60 -2 15 -4 0 -4 -33z"/>
<path d="M16872 193 l1 -58 6 45 6 45 28 -42 c15 -24 29 -43 32 -43 3 0 4 26
3 58 l-1 57 -6 -45 -6 -45 -24 43 c-14 23 -28 42 -33 42 -4 0 -7 -26 -6 -57z"/>
<path d="M7591 221 c-25 -47 -18 -51 90 -51 l100 0 -3 33 -3 32 -87 3 c-78 2
-88 1 -97 -17z"/>
<path d="M8223 217 c-1 -12 -11 -29 -22 -38 -25 -21 -17 -29 28 -29 41 0 114
38 119 60 2 12 -7 14 -42 12 -24 -2 -52 1 -63 6 -16 9 -19 7 -20 -11z"/>
<path d="M11523 217 c-1 -12 -11 -29 -22 -38 -25 -21 -17 -29 28 -29 41 0 114
38 119 60 2 12 -7 14 -42 12 -24 -2 -52 1 -63 6 -16 9 -19 7 -20 -11z"/>
<path d="M790 223 c8 -3 19 -11 23 -17 6 -7 7 -6 4 4 -2 8 -12 16 -23 17 -13
2 -15 1 -4 -4z"/>
<path d="M976 215 c-9 -26 -7 -32 5 -12 6 10 9 21 6 23 -2 3 -7 -2 -11 -11z"/>
<path d="M1021 214 c0 -11 3 -14 6 -6 3 7 2 16 -1 19 -3 4 -6 -2 -5 -13z"/>
<path d="M1137 223 c-3 -5 5 -8 18 -8 13 0 21 3 18 8 -2 4 -10 7 -18 7 -8 0
-16 -3 -18 -7z"/>
<path d="M1297 223 c6 -4 13 -24 16 -43 4 -34 4 -33 3 4 -1 26 -6 41 -16 43
-10 3 -11 2 -3 -4z"/>
<path d="M1431 185 c2 -33 3 -35 6 -10 2 17 11 35 20 42 13 10 13 12 -6 10
-18 -1 -21 -7 -20 -42z"/>
<path d="M1051 194 c-1 -31 13 -45 42 -43 7 0 2 4 -10 9 -31 12 -29 30 2 30
17 0 25 5 24 18 0 10 -3 12 -6 5 -2 -7 -13 -13 -23 -13 -10 0 -21 6 -23 13 -3
6 -6 -2 -6 -19z"/>
<path d="M1351 194 c-1 -31 13 -45 42 -43 7 0 2 4 -10 9 -31 12 -29 30 2 30
17 0 25 5 24 18 0 10 -3 12 -6 5 -2 -7 -13 -13 -23 -13 -10 0 -21 6 -23 13 -3
6 -6 -2 -6 -19z"/>
<path d="M941 194 c0 -11 3 -14 6 -6 3 7 2 16 -1 19 -3 4 -6 -2 -5 -13z"/>
<path d="M1163 193 c11 -3 16 -11 13 -19 -3 -7 -1 -16 4 -19 6 -4 10 5 10 19
0 21 -5 26 -22 25 -19 -1 -19 -2 -5 -6z"/>
<path d="M1006 174 c-4 -9 -4 -19 -1 -22 2 -3 7 3 11 12 4 9 4 19 1 22 -2 3
-7 -3 -11 -12z"/>
<path d="M1133 176 c1 -11 9 -21 17 -23 10 -3 11 -2 4 4 -6 4 -14 15 -17 23
-5 11 -6 9 -4 -4z"/>
<path d="M950 159 c0 -5 5 -7 10 -4 6 3 10 8 10 11 0 2 -4 4 -10 4 -5 0 -10
-5 -10 -11z"/>
<path d="M7665 89 c-4 -6 -5 -12 -2 -15 2 -3 7 2 10 11 7 17 1 20 -8 4z"/>
<path d="M11435 90 c-14 -22 11 -30 96 -30 82 0 89 1 89 20 0 19 -7 20 -89 20
-50 0 -93 -4 -96 -10z"/>
<path d="M13155 92 c-3 -3 -5 -10 -5 -16 0 -6 5 -4 10 4 8 13 10 12 10 -3 0
-12 6 -17 18 -15 25 5 21 33 -5 34 -12 1 -25 -1 -28 -4z"/>
<path d="M13705 90 c-4 -7 -3 -16 3 -22 14 -14 47 -6 47 12 0 18 -40 26 -50
10z"/>
<path d="M12620 82 c0 -5 7 -9 15 -9 8 0 15 4 15 9 0 4 -7 8 -15 8 -8 0 -15
-4 -15 -8z"/>
</g>
</svg>
