<svg width="1280" height="832" viewBox="0 0 1280 832" fill="none" xmlns="http://www.w3.org/2000/svg">
<g id="MacBook Air - 18" clip-path="url(#clip0_889_3372)">
<rect width="1280" height="832" fill="#E5E6E7"/>
<g id="Rectangle 730">
<mask id="path-1-outside-1_889_3372" maskUnits="userSpaceOnUse" x="122" y="-11" width="312" height="486" fill="black">
<rect fill="white" x="122" y="-11" width="312" height="486"/>
<path d="M124 -6.99999C124 -9.20913 125.791 -11 128 -11H428C430.209 -11 432 -9.20914 432 -7V469C432 471.209 430.209 473 428 473H128C125.791 473 124 471.209 124 469V-6.99999Z"/>
</mask>
<path d="M124 -6.99999C124 -9.20913 125.791 -11 128 -11H428C430.209 -11 432 -9.20914 432 -7V469C432 471.209 430.209 473 428 473H128C125.791 473 124 471.209 124 469V-6.99999Z" fill="#D1E287"/>
<path fill-rule="evenodd" clip-rule="evenodd" d="M123.314 -8.74728C122.898 -8.22841 122.567 -7.63904 122.341 -6.99999C122.12 -6.37444 122 -5.70127 122 -5V-1.04999H123H125H126V-6.99999V-7C126 -7.98444 126.178 -8.88581 126.473 -9.58267C126.84 -10.4496 127.388 -11 128 -11C126.104 -11 124.413 -10.1205 123.314 -8.74728ZM126 10.85H125H123H122V22.75H123H125H126V10.85ZM126 34.65H125H123H122V46.55H123H125H126V34.65ZM126 58.45H125H123H122V70.35H123H125H126V58.45ZM126 82.25H125H123H122V94.15H123H125H126V82.25ZM126 106.05H125H123H122V117.95H123H125H126V106.05ZM126 129.85H125H123H122V141.75H123H125H126V129.85ZM126 153.65H125H123H122V165.55H123H125H126V153.65ZM126 177.45H125H123H122V189.35H123H125H126V177.45ZM126 201.25H125H123H122V213.15H123H125H126V201.25ZM126 225.05H125H123H122V236.95H123H125H126V225.05ZM126 248.85H125H123H122V260.75H123H125H126V248.85ZM126 272.65H125H123H122V284.55H123H125H126V272.65ZM126 296.45H125H123H122V308.35H123H125H126V296.45ZM126 320.25H125H123H122V332.15H123H125H126V320.25ZM126 344.05H125H123H122V355.95H123H125H126V344.05ZM126 367.85H125H123H122V379.75H123H125H126V367.85ZM126 391.65H125H123H122V403.55H123H125H126V391.65ZM126 415.45H125H123H122V427.35H123H125H126V415.45ZM126 439.25H125H123H122V451.15H123H125H126V439.25ZM126 463.05H125H123H122V469C122 471.9 124.057 474.319 126.791 474.878C127.181 474.958 127.586 475 128 475H133.769V474V472V471H128C126.895 471 126 470.105 126 469V463.05ZM145.308 471V472V474V475H156.846V474V472V471H145.308ZM168.385 471V472V474V475H179.923V474V472V471H168.385ZM191.462 471V472V474V475H203V474V472V471H191.462ZM214.538 471V472V474V475H226.077V474V472V471H214.538ZM237.615 471V472V474V475H249.154V474V472V471H237.615ZM260.692 471V472V474V475H272.231V474V472V471H260.692ZM283.769 471V472V474V475H295.308V474V472V471H283.769ZM306.846 471V472V474V475H318.385V474V472V471H306.846ZM329.923 471V472V474V475H341.462V474V472V471H329.923ZM353 471V472V474V475H364.539V474V472V471H353ZM376.077 471V472V474V475H387.615V474V472V471H376.077ZM399.154 471V472V474V475H410.692V474V472V471H399.154ZM422.231 471V472V474V475H428C431.314 475 434 472.314 434 469V463.05H433H431H430V469C430 470.105 429.105 471 428 471H422.231ZM430 451.15H431H433H434V439.25H433H431H430V451.15ZM430 427.35H431H433H434V415.45H433H431H430V427.35ZM430 403.55H431H433H434V391.65H433H431H430V403.55ZM430 379.75H431H433H434V367.85H433H431H430V379.75ZM430 355.95H431H433H434V344.05H433H431H430V355.95ZM430 332.15H431H433H434V320.25H433H431H430V332.15ZM430 308.35H431H433H434V296.45H433H431H430V308.35ZM430 284.55H431H433H434V272.65H433H431H430V284.55ZM430 260.75H431H433H434V248.85H433H431H430V260.75ZM430 236.95H431H433H434V225.05H433H431H430V236.95ZM430 213.15H431H433H434V201.25H433H431H430V213.15ZM430 189.35H431H433H434V177.45H433H431H430V189.35ZM430 165.55H431H433H434V153.65H433H431H430V165.55ZM430 141.75H431H433H434V129.85H433H431H430V141.75ZM430 117.95H431H433H434V106.05H433H431H430V117.95ZM430 94.1501H431H433H434V82.2501H433H431H430V94.1501ZM430 70.3501H431H433H434V58.4501H433H431H430V70.3501ZM430 46.5501H431H433H434V34.6502H433H431H430V46.5501ZM430 22.7501H431H433H434V10.8502H433H431H430V22.7501ZM430 -1.04984H431H433H434V-5C434 -5.70127 433.88 -6.37444 433.659 -7C433.433 -7.63905 433.102 -8.22841 432.686 -8.74728C431.587 -10.1205 429.896 -11 428 -11C428.612 -11 429.16 -10.4496 429.527 -9.58267C429.822 -8.88582 430 -7.98444 430 -7V-1.04984Z" fill="black" mask="url(#path-1-outside-1_889_3372)"/>
</g>
<g id="Rectangle 731">
<mask id="path-3-outside-2_889_3372" maskUnits="userSpaceOnUse" x="490" y="372" width="312" height="460" fill="black">
<rect fill="white" x="490" y="372" width="312" height="460"/>
<path d="M492 378C492 375.791 493.791 374 496 374H796C798.209 374 800 375.791 800 378V828C800 830.209 798.209 832 796 832H496C493.791 832 492 830.209 492 828V378Z"/>
</mask>
<path d="M492 378C492 375.791 493.791 374 496 374H796C798.209 374 800 375.791 800 378V828C800 830.209 798.209 832 796 832H496C493.791 832 492 830.209 492 828V378Z" fill="#D1E287"/>
<path fill-rule="evenodd" clip-rule="evenodd" d="M494.473 830.583C494.178 829.886 494 828.984 494 828V822.079H493H491H490V826C490 826.701 490.12 827.374 490.341 828C490.567 828.639 490.898 829.228 491.314 829.747C492.413 831.121 494.104 832 496 832C495.388 832 494.84 831.45 494.473 830.583ZM490 810.237H491H493H494V798.395H493H491H490V810.237ZM490 786.553H491H493H494V774.711H493H491H490V786.553ZM490 762.868H491H493H494V751.026H493H491H490V762.868ZM490 739.184H491H493H494V727.342H493H491H490V739.184ZM490 715.5H491H493H494V703.658H493H491H490V715.5ZM490 691.816H491H493H494V679.974H493H491H490V691.816ZM490 668.132H491H493H494V656.289H493H491H490V668.132ZM490 644.447H491H493H494V632.605H493H491H490V644.447ZM490 620.763H491H493H494V608.921H493H491H490V620.763ZM490 597.079H491H493H494V585.237H493H491H490V597.079ZM490 573.395H491H493H494V561.553H493H491H490V573.395ZM490 549.711H491H493H494V537.868H493H491H490V549.711ZM490 526.026H491H493H494V514.184H493H491H490V526.026ZM490 502.342H491H493H494V490.5H493H491H490V502.342ZM490 478.658H491H493H494V466.816H493H491H490V478.658ZM490 454.974H491H493H494V443.132H493H491H490V454.974ZM490 431.29H491H493H494V419.447H493H491H490V431.29ZM490 407.605H491H493H494V395.763H493H491H490V407.605ZM490 383.921H491H493H494V378C494 376.895 494.895 376 496 376H501.769V375V373V372H496C495.172 372 494.382 372.168 493.665 372.472C491.69 373.306 490.256 375.168 490.031 377.387C490.012 377.576 490.001 377.767 490 377.961C490 377.974 490 377.987 490 378V383.921ZM513.308 372V373V375V376H524.846V375V373V372H513.308ZM536.385 372V373V375V376H547.923V375V373V372H536.385ZM559.462 372V373V375V376H571V375V373V372H559.462ZM582.538 372V373V375V376H594.077V375V373V372H582.538ZM605.615 372V373V375V376H617.154V375V373V372H605.615ZM628.692 372V373V375V376H640.231V375V373V372H628.692ZM651.769 372V373V375V376H663.308V375V373V372H651.769ZM674.846 372V373V375V376H686.385V375V373V372H674.846ZM697.923 372V373V375V376H709.462V375V373V372H697.923ZM721 372V373V375V376H732.538V375V373V372H721ZM744.077 372V373V375V376H755.615V375V373V372H744.077ZM767.154 372V373V375V376H778.692V375V373V372H767.154ZM790.231 372V373V375V376H796C797.105 376 798 376.895 798 378V383.921H799H801H802V378C802 374.686 799.314 372 796 372H790.231ZM802 395.763H801H799H798V407.605H799H801H802V395.763ZM802 419.447H801H799H798V431.289H799H801H802V419.447ZM802 443.132H801H799H798V454.974H799H801H802V443.132ZM802 466.816H801H799H798V478.658H799H801H802V466.816ZM802 490.5H801H799H798V502.342H799H801H802V490.5ZM802 514.184H801H799H798V526.026H799H801H802V514.184ZM802 537.868H801H799H798V549.71H799H801H802V537.868ZM802 561.553H801H799H798V573.395H799H801H802V561.553ZM802 585.237H801H799H798V597.079H799H801H802V585.237ZM802 608.921H801H799H798V620.763H799H801H802V608.921ZM802 632.605H801H799H798V644.447H799H801H802V632.605ZM802 656.289H801H799H798V668.132H799H801H802V656.289ZM802 679.974H801H799H798V691.816H799H801H802V679.974ZM802 703.658H801H799H798V715.5H799H801H802V703.658ZM802 727.342H801H799H798V739.184H799H801H802V727.342ZM802 751.026H801H799H798V762.868H799H801H802V751.026ZM802 774.71H801H799H798V786.553H799H801H802V774.71ZM802 798.395H801H799H798V810.237H799H801H802V798.395ZM802 822.079H801H799H798V828C798 828.984 797.822 829.886 797.527 830.583C797.16 831.45 796.612 832 796 832C797.896 832 799.587 831.121 800.686 829.747C801.102 829.228 801.433 828.639 801.659 828C801.88 827.374 802 826.701 802 826V822.079Z" fill="black" mask="url(#path-3-outside-2_889_3372)"/>
</g>
<g id="Rectangle 732">
<mask id="path-5-outside-3_889_3372" maskUnits="userSpaceOnUse" x="858" y="0" width="312" height="459" fill="black">
<rect fill="white" x="858" width="312" height="459"/>
<path d="M860 4.00001C860 1.79087 861.791 0 864 0H1164C1166.21 0 1168 1.79086 1168 4V453C1168 455.209 1166.21 457 1164 457H864C861.791 457 860 455.209 860 453V4.00001Z"/>
</mask>
<path d="M860 4.00001C860 1.79087 861.791 0 864 0H1164C1166.21 0 1168 1.79086 1168 4V453C1168 455.209 1166.21 457 1164 457H864C861.791 457 860 455.209 860 453V4.00001Z" fill="#D1E287"/>
<path fill-rule="evenodd" clip-rule="evenodd" d="M859.314 2.25272C858.898 2.77159 858.567 3.36096 858.341 4.00001C858.12 4.62557 858 5.29873 858 6V9.90791H859H861H862V4.00001V4C862 3.01556 862.178 2.11419 862.473 1.41733C862.84 0.550398 863.388 0 864 0C862.104 0 860.413 0.879467 859.314 2.25272ZM862 21.7237H861H859H858V33.5395H859H861H862V21.7237ZM862 45.3553H861H859H858V57.1711H859H861H862V45.3553ZM862 68.9869H861H859H858V80.8026H859H861H862V68.9869ZM862 92.6184H861H859H858V104.434H859H861H862V92.6184ZM862 116.25H861H859H858V128.066H859H861H862V116.25ZM862 139.882H861H859H858V151.697H859H861H862V139.882ZM862 163.513H861H859H858V175.329H859H861H862V163.513ZM862 187.145H861H859H858V198.961H859H861H862V187.145ZM862 210.776H861H859H858V222.592H859H861H862V210.776ZM862 234.408H861H859H858V246.224H859H861H862V234.408ZM862 258.04H861H859H858V269.855H859H861H862V258.04ZM862 281.671H861H859H858V293.487H859H861H862V281.671ZM862 305.303H861H859H858V317.119H859H861H862V305.303ZM862 328.934H861H859H858V340.75H859H861H862V328.934ZM862 352.566H861H859H858V364.382H859H861H862V352.566ZM862 376.197H861H859H858V388.013H859H861H862V376.197ZM862 399.829H861H859H858V411.645H859H861H862V399.829ZM862 423.461H861H859H858V435.276H859H861H862V423.461ZM862 447.092H861H859H858V453C858 455.9 860.057 458.319 862.791 458.878C863.181 458.958 863.586 459 864 459H869.769V458V456V455H864C862.895 455 862 454.105 862 453V447.092ZM881.308 455V456V458V459H892.846V458V456V455H881.308ZM904.385 455V456V458V459H915.923V458V456V455H904.385ZM927.462 455V456V458V459H939V458V456V455H927.462ZM950.538 455V456V458V459H962.077V458V456V455H950.538ZM973.615 455V456V458V459H985.154V458V456V455H973.615ZM996.692 455V456V458V459H1008.23V458V456V455H996.692ZM1019.77 455V456V458V459H1031.31V458V456V455H1019.77ZM1042.85 455V456V458V459H1054.38V458V456V455H1042.85ZM1065.92 455V456V458V459H1077.46V458V456V455H1065.92ZM1089 455V456V458V459H1100.54V458V456V455H1089ZM1112.08 455V456V458V459H1123.62V458V456V455H1112.08ZM1135.15 455V456V458V459H1146.69V458V456V455H1135.15ZM1158.23 455V456V458V459H1164C1167.31 459 1170 456.314 1170 453V447.092H1169H1167H1166V453C1166 454.105 1165.1 455 1164 455H1158.23ZM1166 435.276H1167H1169H1170V423.461H1169H1167H1166V435.276ZM1166 411.645H1167H1169H1170V399.829H1169H1167H1166V411.645ZM1166 388.013H1167H1169H1170V376.197H1169H1167H1166V388.013ZM1166 364.382H1167H1169H1170V352.566H1169H1167H1166V364.382ZM1166 340.75H1167H1169H1170V328.934H1169H1167H1166V340.75ZM1166 317.118H1167H1169H1170V305.303H1169H1167H1166V317.118ZM1166 293.487H1167H1169H1170V281.671H1169H1167H1166V293.487ZM1166 269.855H1167H1169H1170V258.039H1169H1167H1166V269.855ZM1166 246.224H1167H1169H1170V234.408H1169H1167H1166V246.224ZM1166 222.592H1167H1169H1170V210.776H1169H1167H1166V222.592ZM1166 198.96H1167H1169H1170V187.145H1169H1167H1166V198.96ZM1166 175.329H1167H1169H1170V163.513H1169H1167H1166V175.329ZM1166 151.697H1167H1169H1170V139.881H1169H1167H1166V151.697ZM1166 128.066H1167H1169H1170V116.25H1169H1167H1166V128.066ZM1166 104.434H1167H1169H1170V92.6183H1169H1167H1166V104.434ZM1166 80.8025H1167H1169H1170V68.9867H1169H1167H1166V80.8025ZM1166 57.1709H1167H1169H1170V45.3551H1169H1167H1166V57.1709ZM1166 33.5393H1167H1169H1170V21.7235H1169H1167H1166V33.5393ZM1166 9.90774H1167H1169H1170V6C1170 5.29873 1169.88 4.62556 1169.66 4C1169.43 3.36095 1169.1 2.77159 1168.69 2.25272C1167.59 0.879469 1165.9 0 1164 0C1164.61 0 1165.16 0.550393 1165.53 1.41733C1165.82 2.11418 1166 3.01556 1166 4V9.90774Z" fill="black" mask="url(#path-5-outside-3_889_3372)"/>
</g>
<rect id="Rectangle 733" x="859" y="516" width="310" height="317" rx="5" fill="#D1E287" stroke="black" stroke-width="2" stroke-dasharray="12 12"/>
<g id="Rectangle 734">
<mask id="path-8-outside-4_889_3372" maskUnits="userSpaceOnUse" x="491" y="0" width="312" height="300" fill="black">
<rect fill="white" x="491" width="312" height="300"/>
<path d="M493 4.00001C493 1.79087 494.791 0 497 0H797C799.209 0 801 1.79086 801 4V294C801 296.209 799.209 298 797 298H497C494.791 298 493 296.209 493 294V4.00001Z"/>
</mask>
<path d="M493 4.00001C493 1.79087 494.791 0 497 0H797C799.209 0 801 1.79086 801 4V294C801 296.209 799.209 298 797 298H497C494.791 298 493 296.209 493 294V4.00001Z" fill="#D1E287"/>
<path fill-rule="evenodd" clip-rule="evenodd" d="M492.314 2.25272C491.898 2.77159 491.567 3.36096 491.341 4.00001C491.12 4.62556 491 5.29873 491 6V10.0417H492H494H495V4.00001V4C495 3.01556 495.178 2.11419 495.473 1.41733C495.84 0.550397 496.388 0 497 0C495.104 0 493.413 0.879469 492.314 2.25272ZM495 22.125H494H492H491V34.2083H492H494H495V22.125ZM495 46.2917H494H492H491V58.375H492H494H495V46.2917ZM495 70.4583H494H492H491V82.5417H492H494H495V70.4583ZM495 94.625H494H492H491V106.708H492H494H495V94.625ZM495 118.792H494H492H491V130.875H492H494H495V118.792ZM495 142.958H494H492H491V155.042H492H494H495V142.958ZM495 167.125H494H492H491V179.208H492H494H495V167.125ZM495 191.292H494H492H491V203.375H492H494H495V191.292ZM495 215.458H494H492H491V227.542H492H494H495V215.458ZM495 239.625H494H492H491V251.708H492H494H495V239.625ZM495 263.792H494H492H491V275.875H492H494H495V263.792ZM495 287.958H494H492H491V294C491 296.9 493.057 299.319 495.791 299.878C496.181 299.958 496.586 300 497 300H502.769V299V297V296H497C495.895 296 495 295.105 495 294V287.958ZM514.308 296V297V299V300H525.846V299V297V296H514.308ZM537.385 296V297V299V300H548.923V299V297V296H537.385ZM560.462 296V297V299V300H572V299V297V296H560.462ZM583.538 296V297V299V300H595.077V299V297V296H583.538ZM606.615 296V297V299V300H618.154V299V297V296H606.615ZM629.692 296V297V299V300H641.231V299V297V296H629.692ZM652.769 296V297V299V300H664.308V299V297V296H652.769ZM675.846 296V297V299V300H687.385V299V297V296H675.846ZM698.923 296V297V299V300H710.462V299V297V296H698.923ZM722 296V297V299V300H733.539V299V297V296H722ZM745.077 296V297V299V300H756.615V299V297V296H745.077ZM768.154 296V297V299V300H779.692V299V297V296H768.154ZM791.231 296V297V299V300H797C800.314 300 803 297.314 803 294V287.958H802H800H799V294C799 295.105 798.105 296 797 296H791.231ZM799 275.875H800H802H803V263.792H802H800H799V275.875ZM799 251.708H800H802H803V239.625H802H800H799V251.708ZM799 227.542H800H802H803V215.458H802H800H799V227.542ZM799 203.375H800H802H803V191.292H802H800H799V203.375ZM799 179.208H800H802H803V167.125H802H800H799V179.208ZM799 155.042H800H802H803V142.958H802H800H799V155.042ZM799 130.875H800H802H803V118.792H802H800H799V130.875ZM799 106.708H800H802H803V94.625H802H800H799V106.708ZM799 82.5417H800H802H803V70.4584H802H800H799V82.5417ZM799 58.375H800H802H803V46.2917H802H800H799V58.375ZM799 34.2084H800H802H803V22.125H802H800H799V34.2084ZM799 10.0417H800H802H803V6C803 5.29873 802.88 4.62556 802.659 4C802.433 3.36095 802.102 2.77159 801.686 2.25272C800.587 0.879469 798.896 0 797 0C797.612 0 798.16 0.550393 798.527 1.41733C798.822 2.11418 799 3.01556 799 4V10.0417Z" fill="black" mask="url(#path-8-outside-4_889_3372)"/>
</g>
<g id="Rectangle 735">
<mask id="path-10-outside-5_889_3372" maskUnits="userSpaceOnUse" x="122" y="531" width="312" height="300" fill="black">
<rect fill="white" x="122" y="531" width="312" height="300"/>
<path d="M124 537C124 534.791 125.791 533 128 533H428C430.209 533 432 534.791 432 537V827C432 829.209 430.209 831 428 831H128C125.791 831 124 829.209 124 827V537Z"/>
</mask>
<path d="M124 537C124 534.791 125.791 533 128 533H428C430.209 533 432 534.791 432 537V827C432 829.209 430.209 831 428 831H128C125.791 831 124 829.209 124 827V537Z" fill="#D1E287"/>
<path fill-rule="evenodd" clip-rule="evenodd" d="M126.473 829.583C126.178 828.886 126 827.984 126 827V820.958H125H123H122V825C122 825.701 122.12 826.374 122.341 827C122.567 827.639 122.898 828.228 123.314 828.747C124.413 830.121 126.104 831 128 831C127.388 831 126.84 830.45 126.473 829.583ZM122 808.875H123H125H126V796.792H125H123H122V808.875ZM122 784.708H123H125H126V772.625H125H123H122V784.708ZM122 760.542H123H125H126V748.458H125H123H122V760.542ZM122 736.375H123H125H126V724.292H125H123H122V736.375ZM122 712.208H123H125H126V700.125H125H123H122V712.208ZM122 688.042H123H125H126V675.958H125H123H122V688.042ZM122 663.875H123H125H126V651.792H125H123H122V663.875ZM122 639.708H123H125H126V627.625H125H123H122V639.708ZM122 615.542H123H125H126V603.458H125H123H122V615.542ZM122 591.375H123H125H126V579.292H125H123H122V591.375ZM122 567.208H123H125H126V555.125H125H123H122V567.208ZM122 543.042H123H125H126V537C126 537 126 537 126 537C126 536.862 126.014 536.727 126.041 536.597C126.164 535.994 126.559 535.49 127.091 535.218C127.364 535.079 127.673 535 128 535H133.769V534V532V531H128C127.586 531 127.181 531.042 126.791 531.122C124.252 531.641 122.297 533.764 122.031 536.387C122.012 536.576 122.001 536.767 122 536.961C122 536.974 122 536.987 122 537M145.308 531V532V534V535H156.846V534V532V531H145.308ZM168.385 531V532V534V535H179.923V534V532V531H168.385ZM191.462 531V532V534V535H203V534V532V531H191.462ZM214.538 531V532V534V535H226.077V534V532V531H214.538ZM237.615 531V532V534V535H249.154V534V532V531H237.615ZM260.692 531V532V534V535H272.231V534V532V531H260.692ZM283.769 531V532V534V535H295.308V534V532V531H283.769ZM306.846 531V532V534V535H318.385V534V532V531H306.846ZM329.923 531V532V534V535H341.462V534V532V531H329.923ZM353 531V532V534V535H364.538V534V532V531H353ZM376.077 531V532V534V535H387.615V534V532V531H376.077ZM399.154 531V532V534V535H410.692V534V532V531H399.154ZM422.231 531V532V534V535H428C429.105 535 430 535.895 430 537V543.042H431H433H434V537C434 533.686 431.314 531 428 531H422.231ZM434 555.125H433H431H430V567.208H431H433H434V555.125ZM434 579.292H433H431H430V591.375H431H433H434V579.292ZM434 603.458H433H431H430V615.542H431H433H434V603.458ZM434 627.625H433H431H430V639.708H431H433H434V627.625ZM434 651.792H433H431H430V663.875H431H433H434V651.792ZM434 675.958H433H431H430V688.042H431H433H434V675.958ZM434 700.125H433H431H430V712.208H431H433H434V700.125ZM434 724.292H433H431H430V736.375H431H433H434V724.292ZM434 748.458H433H431H430V760.542H431H433H434V748.458ZM434 772.625H433H431H430V784.708H431H433H434V772.625ZM434 796.792H433H431H430V808.875H431H433H434V796.792ZM434 820.958H433H431H430V827C430 827.984 429.822 828.886 429.527 829.583C429.16 830.45 428.612 831 428 831C429.896 831 431.587 830.121 432.686 828.747C433.102 828.228 433.433 827.639 433.659 827C433.88 826.374 434 825.701 434 825V820.958ZM122 543.042V537Z" fill="black" mask="url(#path-10-outside-5_889_3372)"/>
</g>
<path id="Vector 448" d="M952.5 486.5L942.5 480.726V492.274L952.5 486.5ZM919 487.5H943.5V485.5H919V487.5Z" fill="#ED1C23"/>
<path id="Vector 449" d="M252.5 503.5L242.5 497.726V509.274L252.5 503.5ZM219 504.5H243.5V502.5H219V504.5Z" fill="#ED1C23"/>
<path id="Vector 450" d="M1110 486.5L1100 480.726V492.274L1110 486.5ZM1076.5 487.5H1101V485.5H1076.5V487.5Z" fill="#ED1C23"/>
<path id="Vector 451" d="M382.5 503.5L372.5 497.726V509.274L382.5 503.5ZM349 504.5H373.5V502.5H349V504.5Z" fill="#ED1C23"/>
<path id="Vector 453" d="M462.75 396.75L456.976 406.75H468.524L462.75 396.75ZM463.75 430.25V405.75H461.75V430.25H463.75Z" fill="#ED1C23"/>
<path id="Vector 454" d="M592.5 333.5L582.5 327.726V339.274L592.5 333.5ZM559 334.5H583.5V332.5H559V334.5Z" fill="#ED1C23"/>
<path id="Vector 458" d="M830.75 429.25L824.976 419.25H836.524L830.75 429.25ZM831.75 395.75V420.25H829.75V395.75H831.75Z" fill="#ED1C23"/>
<path id="Vector 459" d="M731.5 333.5L721.5 327.726V339.274L731.5 333.5ZM698 334.5H722.5V332.5H698V334.5Z" fill="#ED1C23"/>
<g id="automobile-svgrepo-com 1">
<g id="color">
<path id="Vector" d="M135.8 501.839L136.839 501.265C137.216 501.073 137.405 500.69 137.311 500.308C137.027 498.49 136.839 492.175 146.472 489.305C146.661 489.209 146.85 489.209 147.039 489.209L165.55 489.305C165.927 489.305 166.305 489.4 166.589 489.592L176.316 496.194C176.505 496.289 176.694 496.385 176.883 496.385C178.677 496.289 180.377 496.481 182.172 496.768C187.272 497.82 189.35 500.595 190.105 502.03C190.294 502.317 190.294 502.7 190.294 502.987C190.2 505.283 191.711 507.866 189.444 509.971L171.122 509.876L151.855 509.397L136.65 509.206C135.8 509.11 134.383 507.866 134.005 507.101C132.4 504.518 135.611 501.934 135.8 501.839Z" fill="#EA5A47"/>
<path id="Vector_2" d="M180.661 504.135C182.738 504.135 184.438 505.857 184.438 507.962C184.438 510.067 182.738 511.789 180.661 511.789C178.583 511.789 176.883 510.067 176.883 507.962C176.883 505.857 178.583 504.135 180.661 504.135Z" fill="#9B9B9A"/>
<path id="Vector_3" d="M143.072 504.135C145.15 504.135 146.85 505.857 146.85 507.962C146.85 510.067 145.15 511.789 143.072 511.789C140.994 511.789 139.294 510.067 139.294 507.962C139.294 505.857 140.994 504.135 143.072 504.135Z" fill="#9B9B9A"/>
<path id="Vector_4" d="M144.017 497.342V493.228C144.017 492.367 144.772 491.602 145.622 491.602H165.644C165.739 491.602 165.833 491.602 165.833 491.697L173.389 497.151C173.578 497.247 173.578 497.534 173.483 497.725C173.389 497.821 173.294 497.916 173.2 497.916C167.911 497.916 147.511 497.725 144.489 497.821C144.206 497.821 144.017 497.629 144.017 497.342C144.017 497.438 144.017 497.438 144.017 497.342Z" fill="#92D3F5"/>
<path id="Vector_5" d="M188.594 498.49L184.816 500.021L186.8 502.796L191.522 502.891L188.594 498.49Z" fill="#FCEA2B"/>
</g>
<g id="line">
<path id="Vector_6" d="M152.044 508.537L171.5 508.92" stroke="black" stroke-width="1.5" stroke-linecap="round" stroke-linejoin="round"/>
<path id="Vector_7" d="M189.35 508.919C190.2 508.727 190.956 508.44 191.05 507.962C191.145 507.005 191.333 504.326 191.333 503.082C191.333 502.604 191.239 502.03 190.956 501.647C189.917 499.733 186.422 495.141 176.883 495.524L167.156 488.922C166.683 488.635 166.117 488.443 165.645 488.443L147.133 488.348C146.85 488.348 146.567 488.348 146.283 488.443C144.206 489.017 135.233 492.27 136.461 500.499L135.422 501.073C134.95 501.264 134.572 501.743 134.478 502.221C134.1 503.561 134.195 504.996 134.667 506.335" stroke="black" stroke-width="1.5" stroke-linecap="round" stroke-linejoin="round"/>
<path id="Vector_8" d="M173.483 497.915L144.961 497.724V493.418" stroke="black" stroke-width="1.5" stroke-linecap="round" stroke-linejoin="round"/>
<path id="Vector_9" d="M180.661 512.746C178.053 512.746 175.939 510.604 175.939 507.962C175.939 505.32 178.053 503.178 180.661 503.178C183.269 503.178 185.383 505.32 185.383 507.962C185.383 510.604 183.269 512.746 180.661 512.746Z" stroke="black" stroke-width="1.5" stroke-linecap="round" stroke-linejoin="round"/>
<path id="Vector_10" d="M143.073 512.746C140.465 512.746 138.35 510.604 138.35 507.962C138.35 505.32 140.465 503.178 143.073 503.178C145.681 503.178 147.795 505.32 147.795 507.962C147.795 510.604 145.681 512.746 143.073 512.746Z" stroke="black" stroke-width="1.5" stroke-linecap="round" stroke-linejoin="round"/>
<path id="Vector_11" d="M185.384 500.787L187.084 502.892L190.578 502.796" stroke="black" stroke-width="1.5" stroke-linecap="round" stroke-linejoin="round"/>
</g>
</g>
</g>
<defs>
<clipPath id="clip0_889_3372">
<rect width="1280" height="832" fill="white"/>
</clipPath>
</defs>
</svg>
