<?xml version="1.0" encoding="UTF-8" standalone="yes"?>
<svg xmlns="http://www.w3.org/2000/svg" xmlns:xlink="http://www.w3.org/1999/xlink" width="835.036px" height="614.905px" version="1.1" viewBox="-163.174 643.313 318.109 234.250">
  <!--
	Exported with Concepts: Smarter Sketching
	Version: 2023.05.5 on Android 13
	https://concepts.app/
	-->
  <title>Untitled</title>
  <desc>Drawing exported from Concepts: Smarter Sketching</desc>
  <defs></defs>
  <rect x="-163.174" y="643.313" width="318.109" height="234.250" stroke="none" fill="#FFFFFF"></rect>
  
    <path id="STROKE_e4626221-bc3d-401c-a234-bb682e7fbd8a" opacity="1.000" fill="none" stroke="#746d9b" stroke-width="1.155" stroke-opacity="1.000" stroke-linecap="round" stroke-linejoin="round" d="M -151.238 647.010 L -60.495 647.010 L -60.495 707.505 L -151.238 707.505 L -151.238 662.133 L -151.238 647.010 "></path>
    <path id="STROKE_117cb096-80b5-45ac-86b9-f1bdaf224295" opacity="1.000" fill="none" stroke="#746d9b" stroke-width="1.155" stroke-opacity="1.000" stroke-linecap="round" stroke-linejoin="round" d="M -30.248 647.010 L -30.248 752.876 L 60.495 752.876 L 60.495 647.010 L -30.248 647.010 L -30.248 647.010 "></path>
    <path id="STROKE_f9c37e8b-a897-4f0f-a8a5-6e8008ee38bc" opacity="1.000" fill="none" stroke="#746d9b" stroke-width="1.155" stroke-opacity="1.000" stroke-linecap="round" stroke-linejoin="round" d="M -151.238 737.752 L -60.495 737.752 L -60.495 783.124 L 0.000 783.124 L 0.000 813.371 L -151.238 813.371 L -151.238 752.876 L -151.238 737.752 "></path>
    <path id="STROKE_ca7bb5d9-066a-4d95-ae14-ece9dadc2ad6" opacity="1.000" fill="none" stroke="#746d9b" stroke-width="1.155" stroke-opacity="1.000" stroke-linecap="round" stroke-linejoin="round" d="M 30.248 783.124 L 136.114 783.124 L 136.114 828.495 L 120.990 828.495 L 120.990 858.743 L 30.248 858.743 L 30.248 783.124 L 30.248 783.124 "></path>
    <path id="STROKE_10685ce3-07a9-4d84-84ca-7776be35e57a" opacity="1.000" fill="none" stroke="#746d9b" stroke-width="1.155" stroke-opacity="1.000" stroke-linecap="round" stroke-linejoin="round" d="M -151.238 722.629 L -45.371 722.629 L -45.371 768.000 L 136.114 768.000 L 151.238 768.000 "></path>
    <path id="STROKE_45d43631-2357-4cc0-8f51-004f65072424" opacity="1.000" fill="none" stroke="#746d9b" stroke-width="1.155" stroke-opacity="1.000" stroke-linecap="round" stroke-linejoin="round" d="M 151.238 768.000 L 151.238 843.619 L 136.114 843.619 L 136.114 873.867 L 15.124 873.867 L 15.124 843.619 L -15.124 843.619 L -15.124 843.619 "></path>
</svg>